<?xml version="1.0" encoding="utf-8"?>
<!-- Generator: Adobe Illustrator 21.0.2, SVG Export Plug-In . SVG Version: 6.00 Build 0)  -->
<svg version="1.1" id="Layer_1" xmlns="http://www.w3.org/2000/svg" xmlns:xlink="http://www.w3.org/1999/xlink" x="0px" y="0px"
	 viewBox="0 0 100 100" style="enable-background:new 0 0 100 100;" xml:space="preserve">
<path d="M92.6,43.1C99.4,20.1,86,6.4,85.4,5.8L84.6,5l-1.1,0.3c-0.6,0.2-14,3.7-22.3,12.9C57.6,17.3,54.4,17,50,17
	s-7.6,0.3-11.2,1.2C30.5,9,17.1,5.4,16.5,5.3L15.4,5l-0.8,0.8C14,6.4,0.6,20.1,7.4,43.1C5.4,47.5,5,51.2,5,56c0,21.5,20.2,39,45,39
	c24.8,0,45-17.5,45-39C95,51.2,94.6,47.5,92.6,43.1z M50,91C27.4,91,9,75.3,9,56c0-4.6,0.4-7.8,2.3-11.9l0.3-0.7l-0.2-0.7
	C5.8,24.5,14,12.7,16.6,9.5c3.4,1.1,13.8,4.8,20,12.2l0.8,1l1.2-0.3c3.7-1,6.9-1.4,11.3-1.4s7.7,0.4,11.3,1.4l1.2,0.3l0.8-1
	c6.1-7.4,16.5-11.1,19.9-12.2c2.6,3.2,10.8,15.1,5.3,33.1l-0.2,0.7l0.3,0.7C90.6,48.2,91,51.4,91,56C91,75.3,72.6,91,50,91z
	 M71.9,68.7c-2,5-6.1,7.7-11.3,7.7c-1,0-2-0.1-3.1-0.3c-3.1-0.6-5.7-2.5-7.5-5.2c-1.8,2.7-4.4,4.6-7.5,5.2c-1.1,0.2-2.1,0.3-3.1,0.3
	c-5.2,0-9.3-2.8-11.3-7.7c-0.4-1,0.1-2.2,1.1-2.6c1-0.4,2.2,0.1,2.6,1.1c1,2.4,3.5,6.2,9.9,5c3-0.6,5.5-3.2,6.3-6.7c0,0,0-0.1,0-0.1
	c0-0.1,0-0.1,0.1-0.2c0-0.1,0.1-0.1,0.1-0.2c0-0.1,0.1-0.1,0.1-0.2c0-0.1,0.1-0.1,0.1-0.1c0-0.1,0.1-0.1,0.1-0.2
	c0,0,0.1-0.1,0.1-0.1c0.1,0,0.1-0.1,0.2-0.1c0,0,0.1-0.1,0.1-0.1c0.1,0,0.1-0.1,0.2-0.1c0.1,0,0.1,0,0.2-0.1c0,0,0.1,0,0.1-0.1
	c0,0,0,0,0.1,0c0.1,0,0.1,0,0.2,0c0.1,0,0.1,0,0.2,0c0.1,0,0.1,0,0.2,0c0.1,0,0.1,0,0.2,0c0,0,0,0,0.1,0c0,0,0.1,0,0.1,0
	c0.1,0,0.1,0,0.2,0.1c0.1,0,0.1,0.1,0.2,0.1c0,0,0.1,0.1,0.1,0.1c0.1,0,0.1,0.1,0.2,0.1c0,0,0.1,0.1,0.1,0.1c0.1,0,0.1,0.1,0.1,0.2
	c0,0,0.1,0.1,0.1,0.1c0,0.1,0.1,0.1,0.1,0.2c0,0.1,0.1,0.1,0.1,0.2c0,0.1,0,0.1,0.1,0.2c0,0,0,0.1,0,0.1c0.8,3.5,3.3,6.1,6.3,6.7
	c6.4,1.2,8.9-2.6,9.9-5c0.4-1,1.6-1.5,2.6-1.1C71.8,66.5,72.3,67.7,71.9,68.7z"/>
</svg>
