<svg width="895" height="420" viewBox="0 0 895 420" fill="none" xmlns="http://www.w3.org/2000/svg">
<g style="mix-blend-mode:luminosity" opacity="0.2">
<path d="M152.548 362.716L112.893 322.916L152.548 283.117H152.147H152.548L112.893 243.317L152.548 203.517L80.8487 131.957L49.2051 163.717L88.8598 203.517L49.2051 243.317L88.8598 283.117L49.2051 322.916L88.8598 362.716L49.2051 402.516L80.8487 434.678L152.548 362.716Z" fill="#E8D1BA"/>
<path d="M111.837 48.9699C111.837 61.3938 101.818 71.413 89.3943 71.413C76.9704 71.413 66.9512 61.3938 66.9512 48.9699C66.9512 36.5461 76.9704 26.5269 89.3943 26.5269C101.818 26.5269 111.837 36.5461 111.837 48.9699Z" fill="#E8D1BA"/>
<path d="M28.3276 48.9699C28.3276 61.3938 18.3083 71.413 5.88445 71.413C-6.5394 71.413 -16.5586 61.3938 -16.5586 48.9699C-16.5586 36.5461 -6.5394 26.5269 5.88445 26.5269C17.9075 26.5269 28.3276 36.5461 28.3276 48.9699Z" fill="#E8D1BA"/>
<path d="M701.295 312.139L669.461 343.972L701.295 375.806L733.13 343.972L701.295 312.139Z" fill="#E8D1BA"/>
<path d="M474.002 209.203V254.089H519.236V298.975H564.874V164.317H429.172V209.203H474.002Z" fill="#E8D1BA"/>
<path d="M792.958 18.176L691.182 119.431L792.958 220.686L894.735 119.431L792.958 18.176ZM792.958 156.799L754.994 119.029L792.958 81.2594L830.923 119.029L792.958 156.799Z" fill="#E8D1BA"/>
<path d="M300.776 -105C244.925 -105 199.521 -59.362 199.521 -3.22327C199.521 52.9155 244.925 98.5535 300.776 98.5535C356.627 98.5535 402.031 52.9155 402.031 -3.22327C402.031 -59.362 357.029 -105 300.776 -105ZM300.776 53.3194C269.837 53.3194 244.524 27.8752 244.524 -3.22327C244.524 -34.3217 269.837 -59.7659 300.776 -59.7659C331.715 -59.7659 357.029 -34.3217 357.029 -3.22327C357.029 28.2791 332.117 53.3194 300.776 53.3194Z" fill="#E8D1BA"/>
<path d="M320.088 379.353C307.664 379.353 297.645 369.334 297.645 356.91C297.645 344.486 307.664 334.467 320.088 334.467C332.511 334.467 342.531 344.486 342.531 356.91C342.531 369.334 332.511 379.353 320.088 379.353Z" fill="#E8D1BA"/>
<path d="M320.088 436.766C307.664 436.766 297.645 426.746 297.645 414.322C297.645 401.899 307.664 391.879 320.088 391.879C332.511 391.879 342.531 401.899 342.531 414.322C342.531 426.346 332.511 436.766 320.088 436.766Z" fill="#E8D1BA"/>
<path d="M526.653 57.8429L558.37 25.4751L566.4 17.7877L574.43 25.4751L606.147 57.8429L637.865 25.4751L645.894 17.7877L677.612 -14.5802L645.894 -46.5435L626.623 -27.1227L606.147 -6.48822L598.118 -14.5802L566.4 -46.5435L526.653 -6.48822L494.936 25.4751L526.653 57.8429Z" fill="#E8D1BA"/>
</g>
</svg>
