<svg width="150" height="41" viewBox="0 0 150 41" fill="none" xmlns="http://www.w3.org/2000/svg">
<path d="M87.4277 11.1795L96.0624 7.93162L87.4277 4.51282V0L102.213 6.01709V9.77778L87.4277 15.8291V11.1795Z" fill="white"/>
<path d="M5.69449 40C2.58533 40 0 38.3932 0 34.8718V34.6838C0 30.359 3.70057 28.9573 8.17844 28.9573H10.3244V28.1197C10.3244 26.4103 9.56404 25.2992 7.7729 25.2992C7.4518 25.2663 7.12746 25.2998 6.81954 25.3976C6.51163 25.4954 6.22656 25.6554 5.98164 25.868C5.73671 26.0806 5.53704 26.3414 5.39473 26.6344C5.25242 26.9274 5.17044 27.2466 5.15377 27.5727H0.523826C0.861778 23.6923 3.90335 21.7949 8.00946 21.7949C12.1156 21.7949 15.2078 23.5556 15.2078 27.9146V39.624H10.4258V37.6069C9.8982 38.3733 9.18807 38.9929 8.3611 39.4082C7.53412 39.8235 6.61699 40.0212 5.69449 39.9829V40ZM10.3244 33.7949V32.0855H8.4488C6.06624 32.0855 4.84961 32.7522 4.84961 34.3248V34.4958C4.84961 35.6924 5.57621 36.53 7.19838 36.53C7.58968 36.575 7.98597 36.5377 8.36232 36.4203C8.73868 36.303 9.08698 36.1081 9.38532 35.8481C9.68367 35.588 9.92561 35.2683 10.096 34.9091C10.2663 34.5499 10.3613 34.1589 10.3751 33.7607L10.3244 33.7949ZM26.1575 39.9488C21.3586 39.9488 17.8946 36.9402 17.8946 31.0086V30.7693C17.8946 24.8547 21.5951 21.7094 26.1913 21.7094C30.1284 21.7094 33.3728 23.7094 33.7614 28.2906H29.0808C28.7935 26.5812 27.9317 25.4872 26.242 25.4872C24.1805 25.4872 22.7611 27.1966 22.7611 30.6154V31.1453C22.7611 34.7009 24.0284 36.2735 26.2758 36.2735C27.0957 36.2483 27.8757 35.9099 28.4588 35.3263C29.0419 34.7427 29.3849 33.9573 29.4187 33.1282H33.7952C33.7556 34.0969 33.522 35.0473 33.1085 35.9219C32.6951 36.7965 32.1105 37.5771 31.39 38.2164C30.6696 38.8557 29.8284 39.3404 28.9174 39.6411C28.0063 39.9418 27.0444 40.0523 26.0899 39.9659L26.1575 39.9488ZM44.0858 39.9659C39.2869 39.9659 35.8229 36.9573 35.8229 31.0257V30.7693C35.8229 24.8547 39.5235 21.7094 44.1196 21.7094C48.0568 21.7094 51.3011 23.7094 51.7067 28.2906H47.0767C46.7895 26.5812 45.9277 25.4872 44.2379 25.4872C42.1933 25.4872 40.757 27.1966 40.757 30.6154V31.1453C40.757 34.7009 42.0243 36.2735 44.2717 36.2735C45.0916 36.2483 45.8716 35.9099 46.4547 35.3263C47.0379 34.7427 47.3809 33.9573 47.4147 33.1282H51.808C51.7684 34.0969 51.5348 35.0473 51.1214 35.9219C50.7079 36.7965 50.1233 37.5771 49.4029 38.2164C48.6825 38.8557 47.8413 39.3404 46.9302 39.6411C46.0192 39.9418 45.0572 40.0523 44.1027 39.9659H44.0858ZM62.2339 39.9659C57.2491 39.9659 53.7851 36.9573 53.7851 31.1282V30.7693C53.7851 24.9231 57.4011 21.7094 62.0311 21.7094C66.3231 21.7094 69.9392 24.1539 69.9392 29.9317V32.0513H58.7361C58.9388 35.1966 60.2568 36.3932 62.3352 36.3932C63.0373 36.4668 63.7423 36.2854 64.3243 35.8814C64.9063 35.4774 65.3273 34.8772 65.512 34.1881H69.9899C69.4491 37.5043 66.7793 40.0171 62.2339 40.0171V39.9659ZM65.3261 28.8718C65.2416 26.2906 64.0757 25.1795 62.1663 25.1795C60.6286 25.1795 59.243 26.0171 58.7868 28.8718H65.3261ZM72.9469 22.1368H77.729V24.7522C78.2339 23.8092 78.9919 23.0296 79.9157 22.5034C80.8395 21.9772 81.8914 21.7256 82.9503 21.7778C86.0933 21.7778 88.1886 23.6753 88.1886 27.9317V39.6411H83.4235V28.6496C83.4235 26.6154 82.5955 25.7094 80.8381 25.7094C80.4175 25.6843 79.9965 25.7525 79.6047 25.9093C79.2129 26.0661 78.8597 26.3077 78.57 26.6171C78.2802 26.9265 78.0608 27.2963 77.9272 27.7006C77.7936 28.1049 77.749 28.5338 77.7966 28.9573V39.624H72.9638L72.9469 22.1368ZM97.2795 16.8376V22.1197H100.659V25.7778H97.2795V34.0684C97.2795 35.3847 97.8709 35.9829 98.9692 35.9829C99.5476 36.001 100.123 35.8961 100.659 35.6753V39.4872C99.7745 39.7431 98.8584 39.8698 97.9385 39.8633C94.1703 39.8633 92.3792 38.1539 92.3792 34.5812V25.7778H90.4022V22.1197H92.413V18.8035L97.2795 16.8376ZM118.79 39.624H113.957V37.0599C113.49 37.9981 112.76 38.7769 111.859 39.2995C110.958 39.8222 109.925 40.0657 108.888 40C105.779 40 103.498 38.0855 103.498 33.9659V22.1197H108.364V33.2308C108.364 35.2479 109.159 36.1881 110.882 36.1881C111.302 36.2103 111.722 36.14 112.112 35.9822C112.502 35.8244 112.854 35.5828 113.144 35.274C113.433 34.9652 113.652 34.5967 113.787 34.1937C113.922 33.7908 113.968 33.3631 113.924 32.9402V22.1197H118.79V39.624ZM122.305 22.1197H127.121V25.3334C127.506 24.2706 128.221 23.3628 129.16 22.7464C130.098 22.1299 131.209 21.838 132.325 21.9146V26.718C129.047 26.718 127.121 27.7265 127.121 30.6496V39.6411H122.305V22.1197ZM142.244 40C137.175 40 133.795 36.9915 133.795 31.1624V30.7693C133.795 24.9231 137.411 21.7094 142.024 21.7094C146.333 21.7094 149.949 24.1539 149.949 29.9317V32.0513H138.746C138.949 35.1966 140.267 36.3932 142.345 36.3932C143.047 36.4668 143.752 36.2854 144.334 35.8814C144.916 35.4774 145.337 34.8772 145.522 34.1881H150C149.459 37.5043 146.789 40.0171 142.244 40.0171V40ZM138.864 28.8718H145.319C145.218 26.2906 144.052 25.1795 142.143 25.1795C140.622 25.1795 139.219 26.0171 138.763 28.8718" fill="white"/>
</svg>
