<svg width="40" height="40" viewBox="0 0 40 40" fill="none" xmlns="http://www.w3.org/2000/svg">
<path opacity="0.4" d="M11.832 40H28.168C35.246 40 40 35.448 40 28.67V11.33C40 4.552 35.246 0 28.168 0H11.832C4.756 0 0 4.554 0 11.332L0 28.67C0 35.448 4.756 40 11.832 40Z" fill="white"/>
<path d="M21.7109 28.5586L29.2409 21.0626C29.8069 20.4986 29.8069 19.5006 29.2409 18.9346L21.7109 11.4386C21.1229 10.8546 20.1729 10.8566 19.5889 11.4446C19.0049 12.0326 19.0049 12.9806 19.5929 13.5666L24.5469 18.5006H11.8369C11.0069 18.5006 10.3369 19.1726 10.3369 20.0006C10.3369 20.8286 11.0069 21.5006 11.8369 21.5006H24.5469L19.5929 26.4326C19.2989 26.7266 19.1529 27.1106 19.1529 27.4966C19.1529 27.8786 19.2989 28.2626 19.5889 28.5546C20.1729 29.1406 21.1229 29.1426 21.7109 28.5586Z" fill="white"/>
</svg>
