<svg width="1024" height="1024" viewBox="0 0 1024 1024" fill="none" xmlns="http://www.w3.org/2000/svg">
<rect width="1024" height="1024" rx="285" fill="#0045FF"/>
<path d="M357.743 314.52L350.837 250.577C350.837 241.452 346.276 234.607 375.942 201.516C409.121 164.506 455.821 118.227 474.079 98.8304C485.494 86.7041 513.333 82.4007 515.159 117.086C516.985 151.771 530.374 303.443 536.841 374.944C539.111 400.045 545.973 424.005 527.715 420.582C509.547 417.176 375.562 396.242 296.063 387.494C273.241 384.983 242.43 379.508 219.608 406.89C196.785 434.273 154.564 480.672 136.306 500.448C124.514 514.9 115.845 539.695 136.306 546.086C154.567 551.791 291.118 562.06 350.837 568.906C361.107 569.666 386.897 566.167 407.894 546.086C428.89 526.006 434.829 520.225 454.608 500.448" stroke="white" stroke-width="79" stroke-linecap="round"/>
<path d="M659.734 721.804L668.321 770.918C668.247 780.04 672.75 786.92 642.831 819.757C609.369 856.483 562.319 902.366 543.913 921.606C532.405 933.635 504.545 937.711 503.002 903.025C501.459 868.338 492.537 732.062 486.655 660.536C484.59 635.426 477.926 611.42 496.146 614.989C514.277 618.542 648.021 640.556 727.406 649.946C750.196 652.641 780.945 658.365 803.978 631.177C827.011 603.99 869.587 557.952 887.996 538.331C899.898 523.981 908.764 499.266 888.366 492.711C870.161 486.86 733.766 475.486 674.135 468.158C663.876 467.315 638.072 470.603 616.923 490.505C595.775 510.408 586.277 518.723 566.347 538.331" stroke="white" stroke-width="79" stroke-linecap="round"/>
</svg>
