<svg width="1024" height="1024" viewBox="0 0 1024 1024" fill="none" xmlns="http://www.w3.org/2000/svg">
<rect width="1024" height="1024" fill="#0045FF"/>
<path d="M351.578 328.332L341.112 225.807C341.112 215.362 335.902 207.526 369.788 169.649C407.688 127.285 461.032 74.31 481.888 52.1079C494.927 38.2272 526.728 33.3014 528.814 73.004C530.899 112.707 546.194 286.321 553.58 368.165C556.173 396.898 564.012 424.324 543.156 420.406C522.403 416.507 369.354 392.544 278.545 382.531C252.475 379.657 217.281 373.389 191.211 404.734C165.141 436.078 116.912 489.189 96.0567 511.826C82.5874 528.369 72.6847 556.75 96.0567 564.067C116.917 570.597 272.896 582.351 341.112 590.187C352.843 591.057 382.302 587.052 406.286 564.067C430.27 541.081 481.458 490.059 504.052 467.422" stroke="white" stroke-width="45.8133" stroke-linecap="round"/>
<path d="M668.374 706.046L674.829 796.22C674.745 806.661 679.899 814.536 645.652 852.124C607.349 894.163 553.492 946.684 532.423 968.708C519.251 982.478 487.361 987.143 485.594 947.438C483.828 907.734 473.615 751.743 466.882 669.869C464.518 641.127 456.89 613.647 477.746 617.733C498.5 621.799 651.593 646.999 742.462 657.746C768.549 660.832 803.747 667.383 830.112 636.263C856.477 605.143 905.212 552.444 926.284 529.985C939.909 513.558 950.058 485.268 926.708 477.765C905.869 471.067 749.742 458.048 681.484 449.66C669.741 448.694 640.204 452.458 615.996 475.24C591.788 498.022 543.451 545.004 520.639 567.449" stroke="white" stroke-width="45.8133" stroke-linecap="round"/>
</svg>
