<svg width="1030" height="590" viewBox="0 0 1030 590" fill="none" xmlns="http://www.w3.org/2000/svg">
<g clip-path="url(#clip0)">
<path d="M215.189 236.441C213.01 236.441 210.897 235.813 208.85 234.559C205.812 232.644 203.699 229.739 202.511 225.843C201.322 222.013 200.728 217.787 200.728 213.165C200.728 209.005 201.058 204.746 201.719 200.388C202.379 195.964 203.105 191.805 203.898 187.909C204.756 183.947 205.482 180.547 206.077 177.707C207.001 173.217 207.925 168.793 208.85 164.435C209.84 160.011 210.501 155.984 210.831 152.352C210.897 151.824 210.93 151.361 210.93 150.965C210.93 150.569 210.93 150.173 210.93 149.777C210.93 146.607 210.137 145.023 208.553 145.023H208.454C206.341 145.023 204.063 146.145 201.62 148.39C199.176 150.569 196.733 153.606 194.29 157.502C191.913 161.332 189.701 165.756 187.654 170.774C184.947 177.575 182.966 183.716 181.712 189.196C180.523 194.611 179.632 199.794 179.037 204.746C178.839 206.199 178.311 207.388 177.453 208.312C176.66 209.17 175.736 209.666 174.679 209.798H174.283C173.623 209.798 172.93 209.633 172.203 209.302C171.477 208.906 171.114 208.378 171.114 207.718V207.421C171.906 203.525 172.533 199.728 172.996 196.03C173.524 192.333 173.986 188.503 174.382 184.541C174.646 182.23 174.812 180.051 174.878 178.004C175.01 175.891 175.076 173.911 175.076 172.062C175.076 164.6 174.283 159.054 172.699 155.422C171.18 151.791 169.265 149.975 166.954 149.975C164.247 149.975 161.275 152.451 158.04 157.403C154.871 162.355 152.064 169.652 149.621 179.292C149.225 180.943 148.763 183.551 148.235 187.116C147.772 190.682 147.343 194.974 146.947 199.992C146.551 205.01 146.221 210.524 145.957 216.533C145.825 218.447 144.438 219.405 141.797 219.405C140.608 219.405 139.486 219.075 138.429 218.414C137.373 217.82 136.811 217.16 136.745 216.434C137.01 214.585 137.373 212.076 137.835 208.906C138.297 205.737 138.759 202.138 139.222 198.11C139.684 194.083 140.047 189.89 140.311 185.532C140.509 182.164 140.608 179.028 140.608 176.123C140.608 167.737 139.882 160.969 138.429 155.818C137.043 150.668 135.194 146.904 132.883 144.527C130.572 142.084 128.063 140.863 125.355 140.863C122.978 140.863 120.601 141.721 118.224 143.438C115.847 145.089 113.668 147.466 111.687 150.569C109.706 153.606 108.056 157.106 106.735 161.068C105.48 164.964 104.853 169.553 104.853 174.835C104.853 177.41 105.381 179.655 106.438 181.57C107.56 183.485 109.178 184.442 111.291 184.442C112.612 184.442 114.031 184.013 115.55 183.155C115.616 183.089 115.715 183.056 115.847 183.056C116.243 183.056 116.441 183.32 116.441 183.848C116.441 184.376 116.111 184.838 115.451 185.235C113.206 186.489 111.027 187.116 108.914 187.116C106.273 187.116 104.127 186.093 102.476 184.046C100.825 181.999 100 179.094 100 175.33C100 171.5 100.726 167.242 102.179 162.553C103.632 157.865 105.778 153.507 108.617 149.48C111.324 145.65 114.196 142.613 117.234 140.368C120.337 138.123 123.606 137 127.039 137C131.001 137 134.269 137.924 136.845 139.773C139.42 141.556 141.467 143.933 142.985 146.904C144.504 149.876 145.626 153.111 146.353 156.611C147.079 160.11 147.541 163.61 147.739 167.109C148.004 170.543 148.136 173.646 148.136 176.42C149.588 169.685 151.536 163.94 153.979 159.186C156.488 154.366 159.196 150.668 162.101 148.093C165.072 145.518 167.878 144.23 170.52 144.23C173.623 144.23 176.231 146.112 178.344 149.876C180.523 153.573 181.613 159.483 181.613 167.605C181.613 168.793 181.58 170.048 181.514 171.368C181.447 172.689 181.348 174.076 181.216 175.528C181.216 175.792 181.183 176.354 181.117 177.212C181.051 178.07 180.985 178.962 180.919 179.886C181.381 178.698 181.91 177.278 182.504 175.627C183.164 173.911 183.692 172.59 184.089 171.666C185.607 167.968 187.324 164.27 189.239 160.573C191.154 156.809 193.267 153.375 195.578 150.272C197.889 147.169 200.332 144.692 202.907 142.844C205.482 140.929 208.156 139.971 210.93 139.971H211.425C216.377 139.971 218.853 143.735 218.853 151.262C218.853 153.243 218.688 155.488 218.358 157.997C218.094 160.441 217.599 163.148 216.872 166.119C216.674 167.109 216.245 168.826 215.585 171.269C214.924 173.646 214.165 176.486 213.307 179.787C212.448 183.023 211.59 186.423 210.732 189.989C209.873 193.554 209.114 197.021 208.454 200.388C207.925 203.228 207.496 206.034 207.166 208.807C206.836 211.58 206.671 214.222 206.671 216.731C206.671 221.353 207.331 225.149 208.652 228.121C210.038 231.158 212.448 232.677 215.882 232.677C217.929 232.677 219.811 232.182 221.527 231.191C223.244 230.201 224.499 228.979 225.291 227.527C225.489 227.13 225.753 226.932 226.083 226.932C226.48 226.932 226.678 227.163 226.678 227.626V227.725C226.678 229.111 226.117 230.465 224.994 231.785C223.938 233.172 222.551 234.295 220.834 235.153C219.117 236.011 217.236 236.441 215.189 236.441Z" fill="white"/>
<path d="M229.696 162.851C228.442 162.851 227.319 162.388 226.329 161.464C225.404 160.54 224.942 159.417 224.942 158.096C224.942 156.776 225.404 155.653 226.329 154.729C227.319 153.805 228.442 153.342 229.696 153.342C231.017 153.342 232.139 153.805 233.064 154.729C233.988 155.653 234.45 156.776 234.45 158.096C234.45 159.417 233.988 160.54 233.064 161.464C232.139 162.388 231.017 162.851 229.696 162.851ZM230.885 213.957C228.508 213.957 226.56 213.132 225.041 211.481C223.589 209.831 222.466 207.817 221.674 205.44C220.947 202.997 220.419 200.653 220.089 198.408C219.891 196.889 219.759 195.469 219.693 194.149C219.693 192.762 219.693 191.408 219.693 190.088C219.825 186.324 220.155 182.858 220.683 179.688C221.278 176.519 221.872 174.373 222.466 173.25C222.862 172.458 223.49 171.732 224.348 171.071C225.272 170.345 226.494 169.982 228.013 169.982C228.871 169.982 229.729 170.081 230.588 170.279C229.927 172.59 229.135 175.825 228.211 179.985C227.286 184.079 226.824 188.602 226.824 193.554C226.824 196.063 226.989 198.606 227.319 201.181C227.649 203.756 228.277 205.935 229.201 207.718C230.192 209.434 231.545 210.293 233.262 210.293C234.649 210.293 235.87 209.765 236.927 208.708C238.247 207.454 239.238 205.77 239.898 203.657C240.624 201.544 241.251 199.398 241.78 197.219C241.978 196.295 242.308 195.832 242.77 195.832C243.232 195.832 243.463 196.229 243.463 197.021C243.463 197.219 243.43 197.45 243.364 197.714C243.364 197.978 243.331 198.275 243.265 198.606C242.869 200.851 242.176 203.162 241.185 205.539C240.261 207.916 238.973 209.93 237.323 211.58C235.672 213.165 233.526 213.957 230.885 213.957Z" fill="white"/>
<path d="M244.344 213.759C243.42 213.759 242.627 213.429 241.967 212.769C241.373 212.043 241.076 210.854 241.076 209.203C241.076 208.939 241.076 208.675 241.076 208.411C241.076 208.081 241.109 207.751 241.175 207.421C241.307 206.232 241.439 204.581 241.571 202.468C241.769 200.355 241.901 197.978 241.967 195.337C242.099 192.696 242.165 190.055 242.165 187.414C242.165 184.64 242.066 182.032 241.868 179.589C241.736 177.08 241.472 175.099 241.076 173.646C241.604 173.514 242.297 173.151 243.155 172.557C244.014 171.963 244.905 171.566 245.83 171.368C246.028 171.302 246.292 171.269 246.622 171.269C247.745 171.269 248.438 171.864 248.702 173.052C249.032 174.241 249.197 175.693 249.197 177.41C249.197 178.599 249.164 180.018 249.098 181.669C249.098 183.254 249.032 184.64 248.9 185.829C249.626 183.716 250.419 181.9 251.277 180.381C252.136 178.797 253.06 177.278 254.05 175.825C255.041 174.307 256.097 172.821 257.22 171.368C258.342 169.85 259.861 169.09 261.776 169.09C263.757 169.09 265.044 169.751 265.639 171.071C266.233 172.392 266.53 173.845 266.53 175.429C266.53 176.288 266.497 177.113 266.431 177.905C266.365 178.632 266.299 179.325 266.233 179.985C266.233 180.447 266.134 181.669 265.936 183.65C265.738 185.565 265.54 187.843 265.341 190.484C265.143 193.059 265.044 195.667 265.044 198.308C265.044 199.035 265.077 200.058 265.143 201.379C265.209 202.633 265.341 203.921 265.54 205.242C265.738 206.496 266.068 207.586 266.53 208.51C267.058 209.368 267.752 209.798 268.61 209.798C269.138 209.798 269.732 209.6 270.393 209.203C271.119 208.675 271.746 207.982 272.275 207.123C272.869 206.265 273.331 205.407 273.661 204.548C273.925 203.954 274.189 203.294 274.454 202.567C274.718 201.841 274.949 201.082 275.147 200.289C275.411 199.497 275.774 199.101 276.236 199.101C276.566 199.101 276.732 199.431 276.732 200.091V200.487C276.732 200.95 276.632 201.544 276.434 202.27C276.302 202.997 276.104 203.723 275.84 204.449C275.048 206.892 273.859 209.038 272.275 210.887C270.756 212.67 268.61 213.561 265.837 213.561C263.988 213.561 262.535 212.868 261.479 211.481C260.488 210.029 259.762 208.18 259.3 205.935C259.036 204.68 258.838 203.426 258.705 202.171C258.639 200.917 258.606 199.662 258.606 198.408C258.606 195.304 258.804 192.234 259.201 189.196C259.663 186.093 259.894 183.122 259.894 180.282C259.894 179.358 259.762 178.5 259.498 177.707C259.3 176.849 258.805 176.42 258.012 176.42C257.22 176.42 256.262 177.179 255.14 178.698C254.017 180.15 252.862 182.296 251.673 185.136C250.485 187.909 249.494 191.078 248.702 194.644C247.91 198.143 247.513 201.742 247.513 205.44C247.513 207.685 247.712 209.963 248.108 212.274C247.645 212.604 247.051 212.934 246.325 213.264C245.599 213.594 244.938 213.759 244.344 213.759Z" fill="white"/>
<path d="M284.826 213.462C282.845 213.462 281.227 212.835 279.973 211.58C278.784 210.326 277.86 208.741 277.2 206.826C276.539 204.911 276.077 202.931 275.813 200.884C275.615 198.837 275.516 197.021 275.516 195.436V193.951C275.582 193.158 275.648 191.672 275.714 189.494C275.78 187.315 275.879 184.772 276.011 181.867C276.143 178.896 276.341 175.891 276.605 172.854H273.535C273.007 172.854 272.743 172.524 272.743 171.864C272.743 171.533 272.875 171.203 273.139 170.873C273.337 170.477 273.601 170.279 273.931 170.279H276.803C277.068 167.176 277.365 164.369 277.695 161.86C278.025 159.351 278.421 157.568 278.883 156.512C279.214 155.785 279.808 155.158 280.666 154.63C281.525 154.036 282.68 153.738 284.133 153.738C284.529 153.738 284.958 153.772 285.42 153.838C285.949 153.904 286.444 154.003 286.906 154.135C286.576 155.257 286.18 157.304 285.717 160.275C285.321 163.181 284.958 166.515 284.628 170.279H292.552C293.146 170.279 293.443 170.642 293.443 171.368C293.443 171.699 293.344 172.029 293.146 172.359C292.948 172.689 292.651 172.854 292.254 172.854H284.331C284.001 176.486 283.737 180.249 283.539 184.145C283.34 187.975 283.208 191.507 283.142 194.743V197.021C283.142 198.738 283.208 200.62 283.34 202.666C283.472 204.713 283.803 206.463 284.331 207.916C284.859 209.368 285.651 210.095 286.708 210.095H286.807C287.335 210.095 287.896 209.831 288.491 209.302C289.151 208.774 289.844 207.784 290.571 206.331C291.099 205.407 291.561 204.317 291.957 203.063C292.419 201.742 292.882 200.355 293.344 198.903C293.608 198.308 293.872 198.011 294.136 198.011C294.466 198.011 294.631 198.408 294.631 199.2V199.596C294.499 201.313 294.037 203.261 293.245 205.44C292.453 207.619 291.33 209.5 289.877 211.085C288.491 212.67 286.807 213.462 284.826 213.462Z" fill="white"/>
<path d="M321.484 213.462C319.503 213.462 317.885 212.835 316.631 211.58C315.442 210.326 314.518 208.741 313.858 206.826C313.197 204.911 312.735 202.931 312.471 200.884C312.273 198.837 312.174 197.021 312.174 195.436V193.951C312.24 193.158 312.306 191.672 312.372 189.494C312.438 187.315 312.537 184.772 312.669 181.867C312.801 178.896 312.999 175.891 313.263 172.854H310.193C309.665 172.854 309.401 172.524 309.401 171.864C309.401 171.533 309.533 171.203 309.797 170.873C309.995 170.477 310.259 170.279 310.589 170.279H313.462C313.726 167.176 314.023 164.369 314.353 161.86C314.683 159.351 315.079 157.568 315.541 156.512C315.872 155.785 316.466 155.158 317.324 154.63C318.183 154.036 319.338 153.738 320.791 153.738C321.187 153.738 321.616 153.772 322.078 153.838C322.607 153.904 323.102 154.003 323.564 154.135C323.234 155.257 322.838 157.304 322.376 160.275C321.979 163.181 321.616 166.515 321.286 170.279H329.21C329.804 170.279 330.101 170.642 330.101 171.368C330.101 171.699 330.002 172.029 329.804 172.359C329.606 172.689 329.309 172.854 328.912 172.854H320.989C320.659 176.486 320.395 180.249 320.197 184.145C319.998 187.975 319.866 191.507 319.8 194.743V197.021C319.8 198.738 319.866 200.62 319.998 202.666C320.131 204.713 320.461 206.463 320.989 207.916C321.517 209.368 322.309 210.095 323.366 210.095H323.465C323.993 210.095 324.554 209.831 325.149 209.302C325.809 208.774 326.502 207.784 327.229 206.331C327.757 205.407 328.219 204.317 328.615 203.063C329.078 201.742 329.54 200.355 330.002 198.903C330.266 198.308 330.53 198.011 330.794 198.011C331.124 198.011 331.29 198.408 331.29 199.2V199.596C331.157 201.313 330.695 203.261 329.903 205.44C329.111 207.619 327.988 209.5 326.535 211.085C325.149 212.67 323.465 213.462 321.484 213.462Z" fill="white"/>
<path d="M343.441 214.849C340.272 214.849 337.696 213.891 335.716 211.977C333.801 209.996 332.381 207.586 331.457 204.746C330.598 201.841 330.169 199.002 330.169 196.229C330.169 193.059 330.499 189.89 331.16 186.72C331.82 183.485 332.843 180.547 334.23 177.905C335.683 175.264 337.498 173.151 339.677 171.566C341.856 169.916 344.431 169.09 347.403 169.09C349.516 169.09 351.166 169.718 352.355 170.972C353.544 172.227 354.138 174.076 354.138 176.519C354.138 179.82 353.312 182.758 351.662 185.334C350.077 187.843 348.063 189.89 345.62 191.474C343.177 193.059 340.635 194.149 337.994 194.743V195.238C337.994 197.945 338.258 200.487 338.786 202.865C339.38 205.176 340.305 207.057 341.559 208.51C342.88 209.897 344.597 210.59 346.709 210.59C349.285 210.59 351.266 209.533 352.652 207.421C354.039 205.242 355.128 202.501 355.921 199.2C355.987 198.936 356.086 198.705 356.218 198.507C356.416 198.242 356.581 198.11 356.713 198.11C357.307 198.11 357.571 198.54 357.505 199.398C357.307 201.181 356.911 202.865 356.317 204.449C355.723 206.034 355.095 207.388 354.435 208.51C353.18 210.557 351.662 212.109 349.879 213.165C348.162 214.288 346.016 214.849 343.441 214.849ZM338.093 192.465C340.206 191.937 342.054 190.913 343.639 189.394C345.224 187.81 346.445 185.961 347.304 183.848C348.228 181.735 348.69 179.589 348.69 177.41V176.915C348.69 175.726 348.492 174.604 348.096 173.547C347.766 172.491 347.106 171.963 346.115 171.963C344.927 171.963 343.87 172.557 342.946 173.745C342.087 174.868 341.328 176.321 340.668 178.103C340.073 179.886 339.578 181.735 339.182 183.65C338.786 185.565 338.489 187.315 338.291 188.899C338.159 190.484 338.093 191.639 338.093 192.366V192.465Z" fill="white"/>
<path d="M384.217 213.462C382.17 213.462 380.519 212.835 379.265 211.58C378.01 210.26 377.02 208.609 376.294 206.628C375.633 204.581 375.171 202.534 374.907 200.487C374.643 198.374 374.511 196.526 374.511 194.941C373.718 197.912 372.695 200.818 371.44 203.657C370.252 206.496 368.931 208.84 367.479 210.689C366.026 212.472 364.441 213.363 362.724 213.363H362.625C361.041 213.363 359.72 212.637 358.664 211.184C357.607 209.666 356.815 207.685 356.287 205.242C355.758 202.798 355.494 200.157 355.494 197.318V196.328C355.494 193.686 355.725 190.781 356.188 187.612C356.65 184.376 357.475 181.306 358.664 178.401C359.852 175.495 361.47 173.118 363.517 171.269C365.63 169.354 368.304 168.397 371.539 168.397C372.794 168.397 373.917 168.694 374.907 169.288C375.963 169.817 376.723 170.609 377.185 171.666C377.647 171.137 378.274 170.708 379.067 170.378C379.859 170.048 380.817 169.883 381.939 169.883C382.335 169.883 382.764 169.916 383.227 169.982C383.755 170.048 384.283 170.147 384.811 170.279C384.415 171.798 383.953 173.878 383.425 176.519C382.897 179.16 382.434 182.065 382.038 185.235C381.708 188.338 381.543 191.375 381.543 194.347V194.743C381.543 195.997 381.609 197.483 381.741 199.2C381.873 200.917 382.104 202.6 382.434 204.251C382.764 205.902 383.227 207.288 383.821 208.411C384.415 209.533 385.175 210.095 386.099 210.095H386.198C386.726 210.095 387.287 209.831 387.882 209.302C388.542 208.774 389.235 207.784 389.962 206.331C390.952 204.416 391.877 201.94 392.735 198.903C392.867 198.308 393.131 198.011 393.527 198.011C393.857 198.011 394.022 198.408 394.022 199.2V199.596C393.89 201.313 393.428 203.261 392.636 205.44C391.844 207.619 390.721 209.5 389.268 211.085C387.882 212.67 386.198 213.462 384.217 213.462ZM366.092 205.242C367.148 205.242 368.106 204.482 368.964 202.964C369.889 201.445 370.714 199.596 371.44 197.417C372.167 195.238 372.794 193.125 373.322 191.078C374.115 188.041 374.643 184.97 374.907 181.867C375.171 178.698 375.732 175.594 376.591 172.557C375.798 171.699 374.907 171.269 373.917 171.269C372.464 171.269 370.978 171.996 369.46 173.448C367.941 174.901 366.752 176.552 365.894 178.401C364.837 180.712 364.045 183.419 363.517 186.522C363.055 189.626 362.824 192.597 362.824 195.436C362.824 196.163 362.824 196.889 362.824 197.615C362.89 198.341 362.956 199.035 363.022 199.695C363.154 201.676 363.517 203.096 364.111 203.954C364.771 204.812 365.432 205.242 366.092 205.242Z" fill="white"/>
<path d="M423.954 143.071H426.448V230.37H423.954V143.071Z" fill="white"/>
<path d="M475.524 168.38C475.214 165.342 472.951 163.606 469.882 163.606C466.497 163.606 463.862 165.931 463.862 170.129C463.862 174.307 466.435 176.651 469.882 176.651C473.366 176.651 475.295 174.283 475.524 172.032L472.424 172.013C472.207 173.235 471.289 173.96 469.944 173.96C468.134 173.96 466.993 172.652 466.993 170.129C466.993 167.704 468.109 166.297 469.963 166.297C471.358 166.297 472.269 167.109 472.424 168.38H475.524Z" fill="white"/>
<path d="M477.979 176.478H481.011V173.315H481.891L483.981 176.478H487.533L484.297 171.722L487.502 166.954H483.993L481.68 170.501H481.011V166.954H477.979V176.478Z" fill="white"/>
<path d="M489.18 180.049H492.212V174.934H492.274C492.659 175.814 493.514 176.614 494.953 176.614C497.061 176.614 498.76 174.965 498.76 171.722C498.76 168.361 496.961 166.83 494.971 166.83C493.465 166.83 492.64 167.71 492.274 168.585H492.181V166.954H489.18V180.049ZM492.15 171.716C492.15 170.16 492.795 169.199 493.905 169.199C495.027 169.199 495.647 170.184 495.647 171.716C495.647 173.253 495.027 174.252 493.905 174.252C492.795 174.252 492.15 173.26 492.15 171.716Z" fill="white"/>
<path d="M503.731 176.639C505.058 176.639 505.976 176.124 506.497 175.151H506.571V176.478H509.423V170.005C509.423 167.989 507.631 166.83 505.207 166.83C502.646 166.83 501.196 168.12 500.954 169.856L503.75 169.955C503.88 169.347 504.382 168.975 505.182 168.975C505.926 168.975 506.398 169.335 506.398 169.974V170.005C506.398 170.587 505.765 170.711 504.141 170.854C502.212 171.015 500.6 171.728 500.6 173.836C500.6 175.721 501.909 176.639 503.731 176.639ZM504.668 174.655C503.967 174.655 503.471 174.32 503.471 173.687C503.471 173.074 503.955 172.702 504.816 172.571C505.381 172.491 506.075 172.367 506.416 172.187V173.092C506.416 174.022 505.635 174.655 504.668 174.655Z" fill="white"/>
<path d="M520.178 163.482C519.707 163.78 518.938 163.78 517.903 163.78C517.692 163.78 517.469 163.78 517.239 163.78C513.581 163.792 511.647 165.95 511.647 170.662V171.356C511.647 174.803 513.457 176.657 516.452 176.657C519.44 176.657 521.245 174.803 521.245 171.92C521.245 169.205 519.645 167.512 517.146 167.512C515.547 167.512 514.573 168.213 514.028 169.366H513.947C514.183 167.066 515.063 166.229 517.345 166.216C519.36 166.198 520.209 166.092 520.997 165.485L520.178 163.482ZM516.471 174.369C515.392 174.369 514.741 173.495 514.741 172.038C514.747 170.569 515.392 169.738 516.464 169.738C517.506 169.738 518.157 170.569 518.157 172.038C518.157 173.501 517.512 174.369 516.471 174.369Z" fill="white"/>
<path d="M527.327 179.286H530.279V176.478H535.691V179.286H538.568V174.14H537.08V166.954H529.367L529.144 169.85C529.014 171.455 528.89 173.7 528.04 174.14H527.327V179.286ZM530.992 174.14C531.525 173.253 531.729 171.896 531.847 169.85L531.897 169.211H534.253V174.14H530.992Z" fill="white"/>
<path d="M540.204 176.478H541.097C543.088 176.478 544.321 175.237 544.483 172.013L544.631 169.273H546.603V176.478H549.474V166.954H541.934L541.779 171.17C541.699 173.315 541.314 174.14 540.49 174.14H540.186L540.204 176.478Z" fill="white"/>
<path d="M557.555 176.478H560.376V166.954H556.017C553.413 166.954 551.77 168.281 551.789 170.178C551.776 171.3 552.427 172.199 553.562 172.714L551.603 176.478H554.442L556.16 173.185H557.555V176.478ZM557.555 171.263H556.042C555.106 171.263 554.647 170.798 554.66 170.277C554.647 169.775 555.1 169.267 556.017 169.267H557.555V171.263Z" fill="white"/>
<path d="M566.885 169.273H569.892V176.478H572.769V169.273H575.813V166.954H566.885V169.273Z" fill="white"/>
<path d="M582.118 176.657C584.617 176.657 586.26 175.448 586.607 173.576L583.823 173.495C583.588 174.128 582.968 174.469 582.174 174.469C581.008 174.469 580.289 173.694 580.289 172.528V172.447H586.638V171.691C586.638 168.554 584.728 166.83 582.025 166.83C579.148 166.83 577.301 168.802 577.301 171.753C577.301 174.803 579.123 176.657 582.118 176.657ZM580.289 170.687C580.332 169.738 581.083 169.019 582.087 169.019C583.085 169.019 583.805 169.713 583.817 170.687H580.289Z" fill="white"/>
<path d="M588.42 176.478H589.313C591.303 176.478 592.537 175.237 592.698 172.013L592.847 169.273H594.819V176.478H597.689V166.954H590.15L589.995 171.17C589.914 173.315 589.53 174.14 588.705 174.14H588.401L588.42 176.478Z" fill="white"/>
<path d="M602.925 176.639C604.251 176.639 605.169 176.124 605.69 175.151H605.764V176.478H608.616V170.005C608.616 167.989 606.824 166.83 604.4 166.83C601.84 166.83 600.389 168.12 600.147 169.856L602.943 169.955C603.073 169.347 603.576 168.975 604.375 168.975C605.119 168.975 605.591 169.335 605.591 169.974V170.005C605.591 170.587 604.958 170.711 603.334 170.854C601.406 171.015 599.793 171.728 599.793 173.836C599.793 175.721 601.102 176.639 602.925 176.639ZM603.861 174.655C603.16 174.655 602.664 174.32 602.664 173.687C602.664 173.074 603.148 172.702 604.01 172.571C604.574 172.491 605.268 172.367 605.609 172.187V173.092C605.609 174.022 604.828 174.655 603.861 174.655Z" fill="white"/>
<path d="M620.064 176.657C622.742 176.657 624.404 175.101 624.484 172.745H621.651C621.539 173.756 620.932 174.307 620.101 174.307C619.034 174.307 618.34 173.408 618.34 171.716C618.34 170.036 619.041 169.137 620.101 169.137C620.969 169.137 621.533 169.726 621.651 170.699H624.484C624.416 168.355 622.705 166.83 620.057 166.83C617.063 166.83 615.252 168.826 615.252 171.747C615.252 174.655 617.05 176.657 620.064 176.657Z" fill="white"/>
<path d="M629.419 176.639C630.746 176.639 631.664 176.124 632.184 175.151H632.259V176.478H635.111V170.005C635.111 167.989 633.319 166.83 630.895 166.83C628.334 166.83 626.883 168.12 626.641 169.856L629.438 169.955C629.568 169.347 630.07 168.975 630.87 168.975C631.614 168.975 632.085 169.335 632.085 169.974V170.005C632.085 170.587 631.453 170.711 629.828 170.854C627.9 171.015 626.288 171.728 626.288 173.836C626.288 175.721 627.596 176.639 629.419 176.639ZM630.355 174.655C629.655 174.655 629.159 174.32 629.159 173.687C629.159 173.074 629.642 172.702 630.504 172.571C631.068 172.491 631.763 172.367 632.104 172.187V173.092C632.104 174.022 631.323 174.655 630.355 174.655Z" fill="white"/>
<path d="M640.242 166.954H637.167L639.796 171.716L637.031 176.478H640.106L641.811 173.315L643.559 176.478H646.591L643.832 171.716L646.492 166.954H643.435L641.811 170.091L640.242 166.954Z" fill="white"/>
<path d="M651.191 176.639C652.518 176.639 653.436 176.124 653.957 175.151H654.031V176.478H656.883V170.005C656.883 167.989 655.091 166.83 652.667 166.83C650.106 166.83 648.655 168.12 648.414 169.856L651.21 169.955C651.34 169.347 651.842 168.975 652.642 168.975C653.386 168.975 653.857 169.335 653.857 169.974V170.005C653.857 170.587 653.225 170.711 651.6 170.854C649.672 171.015 648.06 171.728 648.06 173.836C648.06 175.721 649.368 176.639 651.191 176.639ZM652.127 174.655C651.427 174.655 650.931 174.32 650.931 173.687C650.931 173.074 651.414 172.702 652.276 172.571C652.84 172.491 653.535 172.367 653.876 172.187V173.092C653.876 174.022 653.095 174.655 652.127 174.655Z" fill="white"/>
<path d="M659.435 180.049H662.467V174.934H662.529C662.914 175.814 663.769 176.614 665.208 176.614C667.316 176.614 669.015 174.965 669.015 171.722C669.015 168.361 667.216 166.83 665.226 166.83C663.72 166.83 662.895 167.71 662.529 168.585H662.436V166.954H659.435V180.049ZM662.405 171.716C662.405 170.16 663.05 169.199 664.16 169.199C665.282 169.199 665.902 170.184 665.902 171.716C665.902 173.253 665.282 174.252 664.16 174.252C663.05 174.252 662.405 173.26 662.405 171.716Z" fill="white"/>
<path d="M674.172 166.954H671.302V176.478H674.172V172.844H676.993V176.478H679.846V166.954H676.993V170.532H674.172V166.954Z" fill="white"/>
<path d="M685.255 169.707V166.954H682.384V176.478H687.053C689.669 176.478 691.244 175.169 691.256 173.123C691.244 171.028 689.669 169.707 687.053 169.707H685.255ZM692.112 176.478H695.144V166.954H692.112V176.478ZM685.255 172.026H687.053C687.846 172.026 688.41 172.478 688.423 173.117C688.41 173.731 687.846 174.159 687.053 174.159H685.255V172.026Z" fill="white"/>
<path d="M700.633 172.553V166.954H697.763V176.478H700.683L703.721 170.86V176.478H706.592V166.954H703.678L700.633 172.553ZM703.405 163.581C703.399 164.145 703.052 164.66 702.165 164.66C701.254 164.66 700.912 164.127 700.919 163.581H698.941C698.935 165.137 700.181 166.16 702.165 166.16C704.149 166.16 705.395 165.137 705.401 163.581H703.405Z" fill="white"/>
<path d="M471.546 209.895C475.989 209.895 479.252 207.238 479.242 203.624C479.252 200.871 477.583 198.894 474.692 198.448V198.277C476.967 197.693 478.444 195.907 478.434 193.463C478.444 190.263 475.819 187.532 471.631 187.532C467.635 187.532 464.425 189.944 464.319 193.484H467.497C467.571 191.486 469.452 190.274 471.589 190.274C473.81 190.274 475.266 191.624 475.256 193.633C475.266 195.737 473.576 197.119 471.164 197.119H469.325V199.797H471.164C474.182 199.797 475.925 201.328 475.925 203.517C475.925 205.633 474.087 207.068 471.525 207.068C469.165 207.068 467.327 205.856 467.199 203.921H463.862C464 207.471 467.146 209.895 471.546 209.895Z" fill="white"/>
<path d="M489.44 209.927C493.001 209.927 495.52 208.173 496.243 205.516L493.235 204.974C492.661 206.515 491.279 207.301 489.472 207.301C486.751 207.301 484.923 205.537 484.838 202.391H496.445V201.264C496.445 195.365 492.916 193.059 489.217 193.059C484.668 193.059 481.671 196.524 481.671 201.541C481.671 206.61 484.625 209.927 489.44 209.927ZM484.849 200.01C484.976 197.693 486.655 195.684 489.238 195.684C491.704 195.684 493.32 197.512 493.33 200.01H484.849Z" fill="white"/>
<path d="M497.787 209.597H498.807C502.368 209.597 503.675 206.961 503.93 201.562L504.185 196.013H509.521V209.597H512.635V193.271H501.241L500.954 200.499C500.752 205.537 500.178 206.844 498.361 206.844H497.776L497.787 209.597Z" fill="white"/>
<path d="M523.012 209.927C526.573 209.927 529.092 208.173 529.815 205.516L526.807 204.974C526.233 206.515 524.851 207.301 523.044 207.301C520.323 207.301 518.495 205.537 518.41 202.391H530.017V201.264C530.017 195.365 526.488 193.059 522.789 193.059C518.24 193.059 515.242 196.524 515.242 201.541C515.242 206.61 518.197 209.927 523.012 209.927ZM518.42 200.01C518.548 197.693 520.227 195.684 522.81 195.684C525.276 195.684 526.892 197.512 526.902 200.01H518.42Z" fill="white"/>
<path d="M535.759 193.271H532.645V209.597H535.759V202.816H542.827V209.597H545.931V193.271H542.827V200.063H535.759V193.271Z" fill="white"/>
<path d="M552.399 198.883V193.271H549.284V209.597H556.416C560.413 209.597 562.645 207.28 562.645 204.208C562.645 201.073 560.413 198.883 556.416 198.883H552.399ZM564.962 209.597H568.14V193.271H564.962V209.597ZM552.399 201.626H556.416C558.245 201.626 559.552 202.731 559.552 204.304C559.552 205.792 558.245 206.855 556.416 206.855H552.399V201.626Z" fill="white"/>
<path d="M574.621 205.144V193.271H571.507V209.597H574.961L582.125 197.714V209.597H585.24V193.271H581.817L574.621 205.144ZM580.457 187.744C580.457 188.818 579.861 189.764 578.373 189.764C576.864 189.764 576.301 188.807 576.301 187.744H573.697C573.697 190.136 575.514 191.783 578.373 191.783C581.254 191.783 583.071 190.136 583.071 187.744H580.457Z" fill="white"/>
<path d="M608.743 193.271H605.64V201.402C604.566 201.689 603.482 201.859 602.238 201.859C600.07 201.859 598.731 200.882 598.731 198.575V193.239H595.638V198.575C595.638 202.657 598.199 204.602 602.238 204.602C603.471 204.602 604.598 204.432 605.64 204.166V209.597H608.743V193.271Z" fill="white"/>
<path d="M616.824 209.959C619.524 209.959 621.044 208.587 621.65 207.365H621.777V209.597H624.881V198.756C624.881 194.005 621.139 193.059 618.546 193.059C615.591 193.059 612.87 194.249 611.807 197.225L614.794 197.905C615.262 196.747 616.452 195.631 618.588 195.631C620.64 195.631 621.692 196.704 621.692 198.554V198.628C621.692 199.787 620.502 199.765 617.568 200.106C614.475 200.467 611.308 201.275 611.308 204.984C611.308 208.194 613.72 209.959 616.824 209.959ZM617.515 207.408C615.719 207.408 614.422 206.6 614.422 205.027C614.422 203.326 615.931 202.72 617.77 202.476C618.801 202.338 621.246 202.061 621.703 201.604V203.709C621.703 205.643 620.162 207.408 617.515 207.408Z" fill="white"/>
<path d="M631.33 205.144V193.271H628.216V209.597H631.67L638.834 197.714V209.597H641.948V193.271H638.526L631.33 205.144ZM637.165 187.744C637.165 188.818 636.57 189.764 635.082 189.764C633.573 189.764 633.009 188.807 633.009 187.744H630.405C630.405 190.136 632.223 191.783 635.082 191.783C637.962 191.783 639.78 190.136 639.78 187.744H637.165Z" fill="white"/>
<path d="M659.223 209.927C663.082 209.927 665.579 207.61 665.93 204.432H662.837C662.433 206.196 661.062 207.238 659.245 207.238C656.555 207.238 654.823 204.995 654.823 201.434C654.823 197.937 656.587 195.737 659.245 195.737C661.264 195.737 662.497 197.013 662.837 198.543H665.93C665.59 195.248 662.901 193.059 659.191 193.059C654.589 193.059 651.613 196.524 651.613 201.509C651.613 206.43 654.483 209.927 659.223 209.927Z" fill="white"/>
<path d="M684.616 205.665L679.451 193.271H675.454V209.597H678.568V197.725L683.436 209.597H685.796L690.749 197.767V209.597H693.842V193.271H689.888L684.616 205.665Z" fill="white"/>
<path d="M704.216 209.927C707.777 209.927 710.296 208.173 711.019 205.516L708.011 204.974C707.437 206.515 706.055 207.301 704.248 207.301C701.527 207.301 699.699 205.537 699.614 202.391H711.221V201.264C711.221 195.365 707.692 193.059 703.993 193.059C699.444 193.059 696.446 196.524 696.446 201.541C696.446 206.61 699.401 209.927 704.216 209.927ZM699.624 200.01C699.752 197.693 701.431 195.684 704.014 195.684C706.48 195.684 708.096 197.512 708.106 200.01H699.624Z" fill="white"/>
<path d="M716.963 193.271H713.849V209.597H716.963V202.816H724.031V209.597H727.135V193.271H724.031V200.063H716.963V193.271Z" fill="white"/>
<path d="M728.464 196.013H733.81V209.597H736.914V196.013H742.239V193.271H728.464V196.013Z" fill="white"/>
<path d="M750.819 209.927C755.421 209.927 758.429 206.557 758.429 201.509C758.429 196.428 755.421 193.059 750.819 193.059C746.217 193.059 743.209 196.428 743.209 201.509C743.209 206.557 746.217 209.927 750.819 209.927ZM750.83 207.259C747.822 207.259 746.419 204.634 746.419 201.498C746.419 198.373 747.822 195.716 750.83 195.716C753.817 195.716 755.22 198.373 755.22 201.498C755.22 204.634 753.817 207.259 750.83 207.259Z" fill="white"/>
<path d="M759.793 209.597H760.813C764.374 209.597 765.681 206.961 765.936 201.562L766.191 196.013H771.527V209.597H774.641V193.271H763.247L762.96 200.499C762.758 205.537 762.184 206.844 760.367 206.844H759.782L759.793 209.597Z" fill="white"/>
<path d="M784.859 209.927C789.461 209.927 792.469 206.557 792.469 201.509C792.469 196.428 789.461 193.059 784.859 193.059C780.256 193.059 777.248 196.428 777.248 201.509C777.248 206.557 780.256 209.927 784.859 209.927ZM784.869 207.259C781.861 207.259 780.458 204.634 780.458 201.498C780.458 198.373 781.861 195.716 784.869 195.716C787.856 195.716 789.259 198.373 789.259 201.498C789.259 204.634 787.856 207.259 784.869 207.259Z" fill="white"/>
<path d="M804.281 205.665L799.115 193.271H795.118V209.597H798.233V197.725L803.101 209.597H805.46L810.413 197.767V209.597H813.506V193.271H809.552L804.281 205.665Z" fill="white"/>
<rect y="291" width="1030" height="299" fill="#65DFC8"/>
<path d="M110.812 438.73V453H127.772V438.73H124.838V450.575H120.79V438.73H117.856V450.575H113.759V438.73H110.812ZM130.231 453H139.875V450.512H133.248V447.105H139.352V444.618H133.248V441.217H139.847V438.73H130.231V453ZM140.884 453H141.664C145.099 453 146.172 450.903 146.395 446.116L146.618 441.148H150.569V453H153.503V438.73H143.817L143.58 445.077C143.441 449.056 142.856 450.408 141.288 450.54L140.884 450.575V453ZM164.035 453H167.776L161.951 445.349L167.519 438.73H163.763L159.025 444.429H158.419V438.73H155.401V453H158.419V446.917H159.45L164.035 453ZM181.014 445.865C181.014 441.196 178.115 438.535 174.332 438.535C170.527 438.535 167.649 441.196 167.649 445.865C167.649 450.512 170.527 453.195 174.332 453.195C178.115 453.195 181.014 450.533 181.014 445.865ZM177.955 445.865C177.955 448.889 176.52 450.526 174.332 450.526C172.137 450.526 170.708 448.889 170.708 445.865C170.708 442.841 172.137 441.203 174.332 441.203C176.52 441.203 177.955 442.841 177.955 445.865ZM182.66 453H188.757C191.962 453 193.669 451.328 193.669 449.056C193.669 446.945 192.157 445.67 190.534 445.593V445.454C192.018 445.119 193.112 444.067 193.112 442.388C193.112 440.249 191.523 438.73 188.374 438.73H182.66V453ZM185.677 450.533V446.743H188.207C189.656 446.743 190.555 447.579 190.555 448.757C190.555 449.83 189.823 450.533 188.137 450.533H185.677ZM185.677 444.701V441.168H187.97C189.308 441.168 190.067 441.858 190.067 442.89C190.067 444.018 189.147 444.701 187.914 444.701H185.677ZM195.051 438.73V453H197.657L203.865 444.018H203.97V453H206.987V438.73H204.339L198.18 447.704H198.054V438.73H195.051ZM221.475 443.726C221.078 440.43 218.583 438.535 215.281 438.535C211.511 438.535 208.633 441.196 208.633 445.865C208.633 450.519 211.462 453.195 215.281 453.195C218.939 453.195 221.148 450.763 221.475 448.136L218.423 448.122C218.138 449.648 216.939 450.526 215.329 450.526C213.162 450.526 211.692 448.917 211.692 445.865C211.692 442.897 213.142 441.203 215.35 441.203C217.002 441.203 218.193 442.158 218.423 443.726H221.475ZM222.507 441.217H226.875V453H229.858V441.217H234.227V438.73H222.507V441.217ZM236.265 453L237.324 449.746H242.473L243.532 453H246.765L241.846 438.73H237.958L233.032 453H236.265ZM238.09 447.391L239.846 441.991H239.958L241.714 447.391H238.09ZM258.291 453V438.73H252.66C249.42 438.73 247.546 440.555 247.546 443.391C247.546 445.342 248.445 446.757 250.068 447.454L247.037 453H250.368L253.072 447.941H255.273V453H258.291ZM255.273 445.516H253.225C251.497 445.516 250.654 444.806 250.654 443.391C250.654 441.97 251.497 441.196 253.239 441.196H255.273V445.516ZM272.768 453H276.51L270.685 445.349L276.252 438.73H272.497L267.758 444.429H267.152V438.73H264.135V453H267.152V446.917H268.183L272.768 453ZM289.748 445.865C289.748 441.196 286.849 438.535 283.065 438.535C279.261 438.535 276.383 441.196 276.383 445.865C276.383 450.512 279.261 453.195 283.065 453.195C286.849 453.195 289.748 450.533 289.748 445.865ZM286.689 445.865C286.689 448.889 285.253 450.526 283.065 450.526C280.87 450.526 279.442 448.889 279.442 445.865C279.442 442.841 280.87 441.203 283.065 441.203C285.253 441.203 286.689 442.841 286.689 445.865ZM301.612 438.73H298.686V444.604H297.174L293.968 438.73H290.255L294.54 445.475L290.066 453H293.641L296.735 447.391H298.686V453H301.612V447.391H303.612L306.629 453H310.232L305.842 445.454L310.023 438.73H306.323L303.201 444.604H301.612V438.73ZM313.902 453L314.961 449.746H320.11L321.17 453H324.403L319.483 438.73H315.595L310.669 453H313.902ZM315.728 447.391L317.484 441.991H317.595L319.351 447.391H315.728Z" fill="black"/>
<rect x="-39.7736" y="401.226" width="395.547" height="89.5473" stroke="black" stroke-width="2.4527"/>
<path d="M715.348 456.108H717.829V453H724.832V456.108H727.27V450.924H725.612V442.297H717.878L717.571 446.046C717.369 448.443 717.104 450.22 716.198 450.924H715.348V456.108ZM718.791 450.924C719.466 449.927 719.717 448.311 719.898 446.046L720.066 444.332H723.201V450.924H718.791ZM733.233 453.209C736.369 453.209 738.362 451 738.362 447.69C738.362 444.374 736.369 442.158 733.233 442.158C730.098 442.158 728.105 444.374 728.105 447.69C728.105 451 730.098 453.209 733.233 453.209ZM733.247 451.188C731.512 451.188 730.662 449.641 730.662 447.683C730.662 445.726 731.512 444.158 733.247 444.158C734.954 444.158 735.805 445.726 735.805 447.683C735.805 449.641 734.954 451.188 733.247 451.188ZM749.286 453.195C752.338 453.195 754.561 451.446 754.554 449.035C754.561 447.251 753.446 445.969 751.446 445.684V445.572C752.993 445.238 754.031 444.088 754.024 442.485C754.031 440.311 752.178 438.535 749.328 438.535C746.555 438.535 744.408 440.186 744.353 442.576H746.84C746.882 441.378 747.997 440.632 749.314 440.632C750.645 440.632 751.53 441.44 751.523 442.639C751.53 443.886 750.498 444.715 749.021 444.715H747.76V446.708H749.021C750.826 446.708 751.899 447.614 751.892 448.903C751.899 450.164 750.805 451.028 749.279 451.028C747.844 451.028 746.736 450.283 746.673 449.119H744.053C744.123 451.53 746.276 453.195 749.286 453.195ZM760.663 453H763.074V444.367H767.269V453H769.7V442.297H760.663V453ZM771.706 457.014H774.228V451.314H774.333C774.73 452.094 775.559 453.188 777.398 453.188C779.921 453.188 781.809 451.188 781.809 447.663C781.809 444.095 779.865 442.158 777.391 442.158C775.503 442.158 774.716 443.294 774.333 444.067H774.186V442.297H771.706V457.014ZM774.179 447.649C774.179 445.572 775.071 444.227 776.695 444.227C778.374 444.227 779.238 445.656 779.238 447.649C779.238 449.655 778.36 451.119 776.695 451.119C775.085 451.119 774.179 449.725 774.179 447.649ZM788.049 453.209C791.185 453.209 793.177 451 793.177 447.69C793.177 444.374 791.185 442.158 788.049 442.158C784.913 442.158 782.921 444.374 782.921 447.69C782.921 451 784.913 453.209 788.049 453.209ZM788.063 451.188C786.328 451.188 785.478 449.641 785.478 447.683C785.478 445.726 786.328 444.158 788.063 444.158C789.77 444.158 790.62 445.726 790.62 447.683C790.62 449.641 789.77 451.188 788.063 451.188ZM803.767 442.297H801.356V450.931H797.161V442.297H794.73V453H802.938V456.442H805.404V451.119H803.767V442.297ZM811.507 453.209C814.001 453.209 815.715 451.99 816.161 450.129L813.806 449.864C813.465 450.77 812.629 451.244 811.542 451.244C809.911 451.244 808.831 450.171 808.81 448.338H816.266V447.565C816.266 443.809 814.008 442.158 811.374 442.158C808.308 442.158 806.309 444.409 806.309 447.711C806.309 451.07 808.281 453.209 811.507 453.209ZM808.817 446.638C808.894 445.273 809.904 444.123 811.409 444.123C812.859 444.123 813.834 445.182 813.848 446.638H808.817ZM816.863 456.108H819.344V453H826.347V456.108H828.786V450.924H827.127V442.297H819.393L819.086 446.046C818.884 448.443 818.619 450.22 817.714 450.924H816.863V456.108ZM820.306 450.924C820.981 449.927 821.232 448.311 821.414 446.046L821.581 444.332H824.716V450.924H820.306ZM831.648 457.014C833.613 457.014 834.748 456.003 835.355 454.296L839.654 442.311L836.957 442.297L834.484 450.38H834.372L831.906 442.297H829.23L833.111 453.223L832.895 453.801C832.428 455.021 831.69 455.104 830.589 454.784L830.003 456.749C830.345 456.888 830.958 457.014 831.648 457.014ZM840.816 457.014H843.338V451.314H843.443C843.84 452.094 844.669 453.188 846.509 453.188C849.031 453.188 850.919 451.188 850.919 447.663C850.919 444.095 848.975 442.158 846.502 442.158C844.613 442.158 843.826 443.294 843.443 444.067H843.296V442.297H840.816V457.014ZM843.29 447.649C843.29 445.572 844.181 444.227 845.805 444.227C847.484 444.227 848.348 445.656 848.348 447.649C848.348 449.655 847.47 451.119 845.805 451.119C844.195 451.119 843.29 449.725 843.29 447.649ZM855.452 451.049H853.222L853.174 451.829C853.055 453.718 852.56 455.641 852.358 456.484H854.059C854.393 455.606 855.166 453.571 855.362 451.815L855.452 451.049ZM867.303 438.73H864.843L861.297 441.008V443.377L864.634 441.245H864.718V453H867.303V438.73ZM875.612 453.272C879.055 453.279 881.11 450.561 881.11 445.879C881.11 441.224 879.041 438.535 875.612 438.535C872.184 438.535 870.122 441.217 870.115 445.879C870.115 450.554 872.17 453.272 875.612 453.272ZM875.612 451.091C873.836 451.091 872.721 449.307 872.728 445.879C872.735 442.478 873.843 440.688 875.612 440.688C877.389 440.688 878.497 442.478 878.504 445.879C878.504 449.307 877.396 451.091 875.612 451.091ZM888.111 453.272C891.553 453.279 893.609 450.561 893.609 445.879C893.609 441.224 891.539 438.535 888.111 438.535C884.683 438.535 882.621 441.217 882.614 445.879C882.614 450.554 884.669 453.272 888.111 453.272ZM888.111 451.091C886.334 451.091 885.22 449.307 885.227 445.879C885.234 442.478 886.341 440.688 888.111 440.688C889.888 440.688 890.996 442.478 891.003 445.879C891.003 449.307 889.895 451.091 888.111 451.091ZM908.93 438.73H899.753V453H902.338V440.897H908.93V438.73ZM909.305 457.014H911.827V451.314H911.931C912.329 452.094 913.158 453.188 914.997 453.188C917.52 453.188 919.408 451.188 919.408 447.663C919.408 444.095 917.464 442.158 914.99 442.158C913.102 442.158 912.315 443.294 911.931 444.067H911.785V442.297H909.305V457.014ZM911.778 447.649C911.778 445.572 912.67 444.227 914.294 444.227C915.973 444.227 916.837 445.656 916.837 447.649C916.837 449.655 915.959 451.119 914.294 451.119C912.684 451.119 911.778 449.725 911.778 447.649Z" fill="black"/>
<rect x="684.226" y="401.226" width="385.547" height="89.5473" stroke="black" stroke-width="2.4527"/>
<path d="M400.371 438.73H388.637V453H391.62V441.182H397.389V453H400.371V438.73ZM402.662 438.73V453H405.268L411.477 444.018H411.581V453H414.598V438.73H411.95L405.791 447.704H405.665V438.73H402.662ZM415.952 441.217H420.321V453H423.303V441.217H427.672V438.73H415.952V441.217ZM429.71 453L430.769 449.746H435.919L436.978 453H440.211L435.291 438.73H431.403L426.477 453H429.71ZM431.536 447.391L433.292 441.991H433.403L435.159 447.391H431.536ZM441.34 453H444.357V447.105H450.482V453H453.492V438.73H450.482V444.618H444.357V438.73H441.34V453ZM455.398 438.73V453H458.004L464.212 444.018H464.317V453H467.334V438.73H464.686L458.526 447.704H458.401V438.73H455.398ZM469.231 453H478.874V450.512H472.248V447.105H478.352V444.618H472.248V441.217H478.847V438.73H469.231V453ZM493.243 453H496.984L491.159 445.349L496.726 438.73H492.971L488.233 444.429H487.626V438.73H484.609V453H487.626V446.917H488.658L493.243 453ZM510.222 445.865C510.222 441.196 507.323 438.535 503.539 438.535C499.735 438.535 496.857 441.196 496.857 445.865C496.857 450.512 499.735 453.195 503.539 453.195C507.323 453.195 510.222 450.533 510.222 445.865ZM507.163 445.865C507.163 448.889 505.727 450.526 503.539 450.526C501.345 450.526 499.916 448.889 499.916 445.865C499.916 442.841 501.345 441.203 503.539 441.203C505.727 441.203 507.163 442.841 507.163 445.865ZM522.086 438.73H519.16V444.604H517.648L514.443 438.73H510.729L515.014 445.475L510.541 453H514.115L517.209 447.391H519.16V453H522.086V447.391H524.086L527.103 453H530.706L526.316 445.454L530.497 438.73H526.797L523.675 444.604H522.086V438.73ZM531.924 438.73V453H534.53L540.738 444.018H540.842V453H543.86V438.73H541.212L535.052 447.704H534.927V438.73H531.924ZM549.709 438.73V453H552.636V443.677H552.754L556.447 452.93H558.44L562.133 443.712H562.252V453H565.178V438.73H561.457L557.527 448.318H557.36L553.43 438.73H549.709ZM569.535 453L570.594 449.746H575.743L576.802 453H580.036L575.116 438.73H571.228L566.302 453H569.535ZM571.361 447.391L573.116 441.991H573.228L574.984 447.391H571.361ZM593.085 443.726C592.688 440.43 590.193 438.535 586.89 438.535C583.121 438.535 580.243 441.196 580.243 445.865C580.243 450.519 583.072 453.195 586.89 453.195C590.549 453.195 592.757 450.763 593.085 448.136L590.033 448.122C589.747 449.648 588.549 450.526 586.939 450.526C584.772 450.526 583.302 448.917 583.302 445.865C583.302 442.897 584.751 441.203 586.96 441.203C588.611 441.203 589.803 442.158 590.033 443.726H593.085ZM593.886 453H594.667C598.102 453 599.175 450.903 599.398 446.116L599.621 441.148H603.572V453H606.505V438.73H596.82L596.583 445.077C596.444 449.056 595.858 450.408 594.29 450.54L593.886 450.575V453ZM610.864 453L611.923 449.746H617.072L618.131 453H621.364L616.445 438.73H612.557L607.631 453H610.864ZM612.689 447.391L614.445 441.991H614.557L616.313 447.391H612.689ZM622.493 438.73V453H625.42V443.677H625.538L629.231 452.93H631.224L634.917 443.712H635.036V453H637.962V438.73H634.241L630.311 448.318H630.144L626.214 438.73H622.493ZM639.866 438.73V453H642.472L648.681 444.018H648.785V453H651.802V438.73H649.154L642.995 447.704H642.869V438.73H639.866Z" fill="black"/>
<rect x="356.226" y="401.226" width="328.547" height="89.5473" stroke="black" stroke-width="2.4527"/>
<path d="M112.708 355H114.659L107.508 345.201L114.119 337.162H112.185L105.609 345.132H103.998V337.162H102.369V355H103.998V346.586H106.567L112.708 355ZM120.882 355.279C124.349 355.279 126.77 352.448 126.77 348.372C126.77 344.269 124.349 341.439 120.882 341.439C117.416 341.439 114.994 344.269 114.994 348.372C114.994 352.448 117.416 355.279 120.882 355.279ZM120.882 353.859C118.104 353.859 116.553 351.368 116.553 348.372C116.553 345.376 118.104 342.85 120.882 342.85C123.661 342.85 125.211 345.376 125.211 348.372C125.211 351.368 123.661 353.859 120.882 353.859ZM128.051 355H129.967L135.193 349.034H136.046V355H137.605V349.034H138.459L143.667 355H145.584L139.696 348.241L145.505 341.622H143.615L138.485 347.57H137.605V341.622H136.046V347.57H135.149L130.019 341.622H128.129L133.956 348.241L128.051 355ZM151.84 355.305C154.069 355.305 155.428 354.068 155.985 352.883H156.081V355H157.632V345.916C157.632 342.327 154.932 341.439 152.885 341.439C150.838 341.439 148.73 342.249 147.824 344.435L149.296 344.966C149.784 343.817 150.995 342.832 152.928 342.832C154.958 342.832 156.081 343.947 156.081 345.776V346.09C156.081 347.1 154.827 347.118 152.58 347.396C149.558 347.771 147.441 348.616 147.441 351.263C147.441 353.842 149.41 355.305 151.84 355.305ZM152.049 353.885C150.298 353.885 148.991 352.953 148.991 351.333C148.991 349.713 150.315 349.034 152.58 348.755C153.677 348.624 155.628 348.38 156.081 347.936V349.87C156.081 352.065 154.522 353.885 152.049 353.885ZM168.733 341.622H167.182V355H168.733V349.051H175.805V355H177.356V341.622H175.805V347.588H168.733V341.622ZM184.483 355.305C186.712 355.305 188.071 354.068 188.628 352.883H188.724V355H190.275V345.916C190.275 342.327 187.575 341.439 185.528 341.439C183.481 341.439 181.373 342.249 180.467 344.435L181.939 344.966C182.427 343.817 183.638 342.832 185.571 342.832C187.601 342.832 188.724 343.947 188.724 345.776V346.09C188.724 347.1 187.47 347.118 185.223 347.396C182.201 347.771 180.084 348.616 180.084 351.263C180.084 353.842 182.052 355.305 184.483 355.305ZM184.692 353.885C182.941 353.885 181.634 352.953 181.634 351.333C181.634 349.713 182.958 349.034 185.223 348.755C186.32 348.624 188.271 348.38 188.724 347.936V349.87C188.724 352.065 187.165 353.885 184.692 353.885ZM198.24 358.806H199.799V355H210.242V358.806H211.793V353.537H209.807V341.622H201.89L201.402 347.222C201.097 350.689 200.54 352.239 199.399 353.537H198.24V358.806ZM201.184 353.537C202.221 352.117 202.656 350.027 202.935 347.222L203.335 343.085H208.257V353.537H201.184ZM219.212 355.279C222.678 355.279 225.099 352.448 225.099 348.372C225.099 344.269 222.678 341.439 219.212 341.439C215.745 341.439 213.324 344.269 213.324 348.372C213.324 352.448 215.745 355.279 219.212 355.279ZM219.212 353.859C216.433 353.859 214.883 351.368 214.883 348.372C214.883 345.376 216.433 342.85 219.212 342.85C221.99 342.85 223.54 345.376 223.54 348.372C223.54 351.368 221.99 353.859 219.212 353.859ZM226.452 355H227.009C230.014 355 230.563 352.762 230.772 348.407L231.024 343.085H236.494V355H238.053V341.622H229.553L229.265 347.884C229.065 352.317 228.777 353.537 226.87 353.537H226.452V355ZM249.379 341.622H241.426V355H242.977V343.085H249.379V341.622ZM256.405 355.279C259.872 355.279 262.293 352.448 262.293 348.372C262.293 344.269 259.872 341.439 256.405 341.439C252.939 341.439 250.518 344.269 250.518 348.372C250.518 352.448 252.939 355.279 256.405 355.279ZM256.405 353.859C253.627 353.859 252.077 351.368 252.077 348.372C252.077 345.376 253.627 342.85 256.405 342.85C259.184 342.85 260.734 345.376 260.734 348.372C260.734 351.368 259.184 353.859 256.405 353.859ZM276.349 355.279C279.136 355.279 281.096 353.519 281.453 351.098H279.885C279.528 352.805 278.126 353.859 276.349 353.859C273.728 353.859 271.994 351.577 271.994 348.32C271.994 345.079 273.78 342.85 276.349 342.85C278.257 342.85 279.546 344.078 279.877 345.593H281.445C281.079 343.111 279.006 341.439 276.323 341.439C272.822 341.439 270.435 344.348 270.435 348.372C270.435 352.361 272.752 355.279 276.349 355.279ZM289.24 355.279C292.707 355.279 295.128 352.448 295.128 348.372C295.128 344.269 292.707 341.439 289.24 341.439C285.773 341.439 283.352 344.269 283.352 348.372C283.352 352.448 285.773 355.279 289.24 355.279ZM289.24 353.859C286.462 353.859 284.911 351.368 284.911 348.372C284.911 345.376 286.462 342.85 289.24 342.85C292.018 342.85 293.569 345.376 293.569 348.372C293.569 351.368 292.018 353.859 289.24 353.859ZM298.203 341.622H296.408L300.659 348.311L296.408 355H298.203L301.652 349.478L305.101 355H306.904L302.601 348.311L306.904 341.622H305.101L301.652 347.327L298.203 341.622ZM309.393 360.017H310.952V352.518H311.091C311.623 353.746 312.772 355.279 315.202 355.279C318.477 355.279 320.707 352.492 320.707 348.346C320.707 344.217 318.486 341.439 315.176 341.439C312.72 341.439 311.631 342.972 311.091 344.174H310.9V341.622H309.393V360.017ZM310.926 348.32C310.926 345.114 312.398 342.85 315.011 342.85C317.702 342.85 319.148 345.236 319.148 348.32C319.148 351.438 317.676 353.859 315.011 353.859C312.424 353.859 310.926 351.551 310.926 348.32ZM327.102 355.305C329.332 355.305 330.691 354.068 331.248 352.883H331.344V355H332.894V345.916C332.894 342.327 330.194 341.439 328.148 341.439C326.101 341.439 323.993 342.249 323.087 344.435L324.559 344.966C325.047 343.817 326.258 342.832 328.191 342.832C330.221 342.832 331.344 343.947 331.344 345.776V346.09C331.344 347.1 330.09 347.118 327.843 347.396C324.82 347.771 322.704 348.616 322.704 351.263C322.704 353.842 324.672 355.305 327.102 355.305ZM327.311 353.885C325.561 353.885 324.254 352.953 324.254 351.333C324.254 349.713 325.578 349.034 327.843 348.755C328.94 348.624 330.891 348.38 331.344 347.936V349.87C331.344 352.065 329.785 353.885 327.311 353.885ZM337.833 341.622H336.283V355H337.833V349.051H344.906V355H346.456V341.622H344.906V347.588H337.833V341.622ZM351.397 352.796V341.622H349.846V355H351.728L358.765 343.825V355H360.316V341.622H358.461L351.397 352.796ZM361.801 343.085H366.278V355H367.828V343.085H372.253V341.622H361.801V343.085ZM387.951 352.831L382.968 341.622H380.956V355H382.507V343.956L387.332 355H388.569L393.394 344.087V355H394.945V341.622H392.976L387.951 352.831ZM406.376 355H407.857V341.622H402.692C399.8 341.622 398.207 342.98 398.207 345.428C398.207 347.318 399.121 348.563 400.811 349.034L397.362 355H399.06L402.387 349.243C402.44 349.243 402.483 349.243 402.527 349.243H406.376V355ZM406.376 347.78H402.527C400.715 347.78 399.766 346.996 399.766 345.428C399.766 343.86 400.767 343.067 402.692 343.059H406.376V347.78ZM419.198 341.622H411.245V355H412.796V343.085H419.198V341.622ZM421.719 355H423.27V349.103H425.203L429.819 355H431.823L426.335 348.058L431.701 341.622H429.697L424.724 347.64H423.27V341.622H421.719V355ZM438.279 355.279C441.746 355.279 444.167 352.448 444.167 348.372C444.167 344.269 441.746 341.439 438.279 341.439C434.813 341.439 432.391 344.269 432.391 348.372C432.391 352.448 434.813 355.279 438.279 355.279ZM438.279 353.859C435.501 353.859 433.95 351.368 433.95 348.372C433.95 345.376 435.501 342.85 438.279 342.85C441.058 342.85 442.608 345.376 442.608 348.372C442.608 351.368 441.058 353.859 438.279 353.859ZM452.06 355.279C454.848 355.279 456.807 353.519 457.164 351.098H455.597C455.24 352.805 453.837 353.859 452.06 353.859C449.439 353.859 447.706 351.577 447.706 348.32C447.706 345.079 449.491 342.85 452.06 342.85C453.968 342.85 455.257 344.078 455.588 345.593H457.156C456.79 343.111 454.717 341.439 452.034 341.439C448.533 341.439 446.146 344.348 446.146 348.372C446.146 352.361 448.463 355.279 452.06 355.279ZM458.645 343.085H463.122V355H464.673V343.085H469.097V341.622H458.645V343.085ZM473.189 346.787V341.622H471.638V355H476.838C479.843 355 481.55 353.336 481.55 350.854C481.55 348.354 479.852 346.787 476.838 346.787H473.189ZM473.189 348.25H476.838C478.728 348.25 480 349.225 480 350.924C480 352.605 478.728 353.537 476.838 353.537H473.189V348.25ZM491.933 352.796V341.622H490.382V355H492.264L499.301 343.825V355H500.852V341.622H498.997L491.933 352.796ZM510.389 355H511.948V343.085H518.96V355H520.519V341.622H510.389V355ZM523.862 360.017H525.421V352.518H525.56C526.091 353.746 527.241 355.279 529.671 355.279C532.946 355.279 535.176 352.492 535.176 348.346C535.176 344.217 532.955 341.439 529.645 341.439C527.189 341.439 526.1 342.972 525.56 344.174H525.368V341.622H523.862V360.017ZM525.395 348.32C525.395 345.114 526.867 342.85 529.479 342.85C532.171 342.85 533.617 345.236 533.617 348.32C533.617 351.438 532.145 353.859 529.479 353.859C526.893 353.859 525.395 351.551 525.395 348.32ZM539.385 352.796V341.622H537.835V355H539.716L546.754 343.825V355H548.304V341.622H546.449L539.385 352.796ZM559.71 355H561.19V341.622H556.025C553.134 341.622 551.54 342.98 551.54 345.428C551.54 347.318 552.454 348.563 554.144 349.034L550.695 355H552.393L555.721 349.243C555.773 349.243 555.816 349.243 555.86 349.243H559.71V355ZM559.71 347.78H555.86C554.048 347.78 553.099 346.996 553.099 345.428C553.099 343.86 554.1 343.067 556.025 343.059H559.71V347.78ZM562.706 343.085H567.183V355H568.733V343.085H573.158V341.622H562.706V343.085ZM577.25 341.622H575.699V355H577.25V349.051H584.322V355H585.872V341.622H584.322V347.588H577.25V341.622ZM590.839 346.787V341.622H589.289V355H594.489C597.494 355 599.201 353.336 599.201 350.854C599.201 348.354 597.502 346.787 594.489 346.787H590.839ZM590.839 348.25H594.489C596.379 348.25 597.65 349.225 597.65 350.924C597.65 352.605 596.379 353.537 594.489 353.537H590.839V348.25ZM601.448 355H603.007V341.622H601.448V355ZM607.946 352.796V341.622H606.395V355H608.277L615.314 343.825V355H616.865V341.622H615.009L607.946 352.796ZM613.233 337.162C613.233 338.077 612.745 338.773 611.63 338.773C610.515 338.773 610.053 338.077 610.053 337.162H608.59C608.59 338.826 609.757 339.958 611.63 339.958C613.52 339.958 614.696 338.826 614.696 337.162H613.233ZM631.585 355.279C635.051 355.279 637.473 352.448 637.473 348.372C637.473 344.269 635.051 341.439 631.585 341.439C628.118 341.439 625.697 344.269 625.697 348.372C625.697 352.448 628.118 355.279 631.585 355.279ZM631.585 353.859C628.806 353.859 627.256 351.368 627.256 348.372C627.256 345.376 628.806 342.85 631.585 342.85C634.363 342.85 635.913 345.376 635.913 348.372C635.913 351.368 634.363 353.859 631.585 353.859ZM640.547 341.622H638.753L643.003 348.311L638.753 355H640.547L643.996 349.478L647.445 355H649.248L644.946 348.311L649.248 341.622H647.445L643.996 347.327L640.547 341.622ZM650.448 355H651.006C654.011 355 654.559 352.762 654.769 348.407L655.021 343.085H660.491V355H662.05V341.622H653.549L653.262 347.884C653.061 352.317 652.774 353.537 650.867 353.537H650.448V355ZM669.16 355.305C671.389 355.305 672.748 354.068 673.305 352.883H673.401V355H674.952V345.916C674.952 342.327 672.252 341.439 670.205 341.439C668.158 341.439 666.05 342.249 665.144 344.435L666.616 344.966C667.104 343.817 668.315 342.832 670.248 342.832C672.278 342.832 673.401 343.947 673.401 345.776V346.09C673.401 347.1 672.147 347.118 669.9 347.396C666.878 347.771 664.761 348.616 664.761 351.263C664.761 353.842 666.73 355.305 669.16 355.305ZM669.369 353.885C667.618 353.885 666.311 352.953 666.311 351.333C666.311 349.713 667.635 349.034 669.9 348.755C670.997 348.624 672.948 348.38 673.401 347.936V349.87C673.401 352.065 671.842 353.885 669.369 353.885ZM677.504 355H679.42L684.646 349.034H685.499V355H687.059V349.034H687.912L693.121 355H695.037L689.149 348.241L694.958 341.622H693.068L687.938 347.57H687.059V341.622H685.499V347.57H684.602L679.472 341.622H677.582L683.409 348.241L677.504 355ZM695.971 358.806H697.53V355H707.973V358.806H709.524V353.537H707.538V341.622H699.621L699.133 347.222C698.828 350.689 698.271 352.239 697.13 353.537H695.971V358.806ZM698.915 353.537C699.952 352.117 700.387 350.027 700.666 347.222L701.066 343.085H705.988V353.537H698.915ZM715.479 355.305C717.709 355.305 719.068 354.068 719.625 352.883H719.721V355H721.271V345.916C721.271 342.327 718.571 341.439 716.524 341.439C714.478 341.439 712.37 342.249 711.464 344.435L712.936 344.966C713.424 343.817 714.634 342.832 716.568 342.832C718.597 342.832 719.721 343.947 719.721 345.776V346.09C719.721 347.1 718.467 347.118 716.22 347.396C713.197 347.771 711.081 348.616 711.081 351.263C711.081 353.842 713.049 355.305 715.479 355.305ZM715.688 353.885C713.938 353.885 712.631 352.953 712.631 351.333C712.631 349.713 713.955 349.034 716.22 348.755C717.317 348.624 719.268 348.38 719.721 347.936V349.87C719.721 352.065 718.162 353.885 715.688 353.885ZM725.121 341.622H723.562V355H725.121V349.182H729.049C729.346 352.823 731.671 355.279 734.902 355.279C738.369 355.279 740.79 352.448 740.79 348.372C740.79 344.269 738.369 341.439 734.902 341.439C731.619 341.439 729.276 343.973 729.032 347.719H725.121V341.622ZM734.902 353.859C732.124 353.859 730.574 351.368 730.574 348.372C730.574 345.376 732.133 342.85 734.902 342.85C737.681 342.85 739.24 345.376 739.24 348.372C739.24 351.368 737.69 353.859 734.902 353.859ZM761.006 353.537H759.334V341.622H757.783V353.537H752.296V341.622H750.746V353.537H745.259V341.622H743.708V355H759.229V358.841H760.762L761.006 353.537ZM765.002 352.796V341.622H763.452V355H765.333L772.371 343.825V355H773.921V341.622H772.066L765.002 352.796ZM778.829 352.796V341.622H777.279V355H779.16L786.198 343.825V355H787.748V341.622H785.893L778.829 352.796ZM784.116 337.162C784.116 338.077 783.628 338.773 782.513 338.773C781.399 338.773 780.937 338.077 780.937 337.162H779.474C779.474 338.826 780.641 339.958 782.513 339.958C784.403 339.958 785.579 338.826 785.579 337.162H784.116ZM801.484 342.919C803.766 342.937 805.255 345.114 805.447 347.544H800.003V349.008H805.456C805.299 351.472 803.783 353.772 801.484 353.781C799.716 353.772 798.113 352.274 798.113 350.584H796.58C796.58 353.162 798.723 355.244 801.484 355.244C804.924 355.244 807.032 352.169 807.032 348.581V348.093C807.032 344.522 804.933 341.456 801.484 341.456C798.949 341.456 796.58 343.494 796.58 345.768H798.113C798.113 344.235 799.838 342.937 801.484 342.919ZM815.359 359.564H816.918V355.279C820.602 355.279 823.259 352.413 823.259 348.38C823.259 344.313 820.602 341.447 816.918 341.447V337.162H815.359V341.447C811.675 341.447 809.018 344.313 809.018 348.38C809.018 352.413 811.675 355.279 815.359 355.279V359.564ZM815.359 353.859C812.363 353.868 810.577 351.333 810.577 348.38C810.577 345.419 812.354 342.867 815.359 342.867V353.859ZM816.918 353.859V342.867C819.914 342.867 821.7 345.419 821.7 348.38C821.7 351.333 819.914 353.859 816.918 353.859ZM831.581 359.564H833.14V355.279C836.825 355.279 839.481 352.413 839.481 348.38C839.481 344.313 836.825 341.447 833.14 341.447V337.162H831.581V341.447C827.897 341.447 825.24 344.313 825.24 348.38C825.24 352.413 827.897 355.279 831.581 355.279V359.564ZM831.581 353.859C828.585 353.868 826.799 351.333 826.799 348.38C826.799 345.419 828.576 342.867 831.581 342.867V353.859ZM833.14 353.859V342.867C836.136 342.867 837.922 345.419 837.922 348.38C837.922 351.333 836.136 353.859 833.14 353.859ZM847.56 355.279C850.242 355.279 852.045 353.824 852.655 352.143L851.183 351.664C850.669 352.866 849.458 353.859 847.56 353.859C844.825 353.859 843.091 351.864 843.022 348.772H852.986V348.006C852.986 343.538 850.225 341.439 847.324 341.439C843.858 341.439 841.463 344.339 841.463 348.389C841.463 352.448 843.814 355.279 847.56 355.279ZM843.031 347.405C843.196 344.914 844.877 342.85 847.324 342.85C849.72 342.85 851.401 344.827 851.401 347.405H843.031ZM855.667 355H857.217V349.103H859.151L863.767 355H865.77L860.283 348.058L865.648 341.622H863.645L858.671 347.64H857.217V341.622H855.667V355ZM866.759 343.085H871.236V355H872.786V343.085H877.211V341.622H866.759V343.085ZM878.761 355.131C879.458 355.131 880.015 354.565 880.015 353.876C880.015 353.18 879.458 352.622 878.761 352.622C878.073 352.622 877.507 353.18 877.507 353.876C877.507 354.565 878.073 355.131 878.761 355.131Z" fill="black"/>
<path d="M104.744 76.8783C104.508 77.0817 104.289 77.2981 104.087 77.5254C102.266 73.5607 101.252 69.1493 101.252 64.5C101.252 47.2419 115.242 33.2515 132.5 33.2515C143.666 33.2515 153.466 39.1076 158.993 47.9215L130.603 72.351L122.005 62.3594C119.554 59.5112 115.259 59.1891 112.411 61.6399C109.562 64.0907 109.24 68.3863 111.691 71.2344L132.784 95.7472C132.689 95.7481 132.595 95.7485 132.5 95.7485C131.612 95.7485 130.732 95.7114 129.863 95.6388L114.339 77.5977C111.888 74.7496 107.592 74.4275 104.744 76.8783ZM163.748 64.5C163.748 76.3649 157.136 86.6876 147.39 91.9799C147.209 91.6906 147.004 91.4116 146.775 91.1457L139.026 82.1395L163.558 61.0298C163.684 62.1688 163.748 63.3267 163.748 64.5Z" fill="white" stroke="white" stroke-width="2.50304"/>
<path d="M190.814 75.2315C188.904 75.2315 187.244 74.807 185.836 73.9581C184.427 73.1091 183.337 71.8935 182.565 70.3113C181.813 68.7098 181.437 66.8382 181.437 64.6964C181.437 62.5354 181.813 60.6637 182.565 59.0815C183.318 57.4993 184.398 56.2837 185.807 55.4348C187.215 54.5858 188.884 54.1613 190.814 54.1613C192.743 54.1613 194.412 54.5858 195.821 55.4348C197.23 56.2837 198.31 57.4993 199.063 59.0815C199.815 60.6637 200.191 62.5257 200.191 64.6675C200.191 66.8285 199.805 68.7001 199.034 70.2823C198.281 71.8645 197.201 73.0898 195.792 73.9581C194.384 74.807 192.724 75.2315 190.814 75.2315ZM190.814 73.2056C192.994 73.2056 194.692 72.4627 195.908 70.977C197.123 69.4912 197.731 67.3881 197.731 64.6675C197.731 61.9469 197.123 59.8533 195.908 58.3869C194.712 56.9205 193.014 56.1873 190.814 56.1873C188.614 56.1873 186.907 56.9301 185.691 58.4159C184.476 59.8823 183.868 61.9662 183.868 64.6675C183.868 67.3881 184.476 69.4912 185.691 70.977C186.907 72.4627 188.614 73.2056 190.814 73.2056ZM223.283 54.3928L214.282 75H212.198L203.197 54.3928H205.715L213.269 71.99L220.823 54.3928H223.283ZM233.999 75.2315C230.777 75.2315 228.211 74.3633 226.301 72.6267L227.198 70.8033C228.22 71.6716 229.262 72.289 230.324 72.6556C231.385 73.0223 232.62 73.2056 234.028 73.2056C235.688 73.2056 236.961 72.8872 237.849 72.2504C238.756 71.5944 239.209 70.6779 239.209 69.5009C239.209 68.8063 238.987 68.2467 238.543 67.8222C238.119 67.3784 237.55 67.0311 236.836 66.7803C236.141 66.5294 235.205 66.269 234.028 65.9988C232.446 65.6515 231.144 65.2753 230.121 64.8701C229.098 64.4649 228.269 63.886 227.632 63.1335C226.995 62.3617 226.677 61.3584 226.677 60.1235C226.677 58.9465 226.986 57.9142 227.603 57.0266C228.22 56.1197 229.089 55.4155 230.208 54.9138C231.346 54.4121 232.668 54.1613 234.173 54.1613C235.601 54.1613 236.932 54.3832 238.167 54.827C239.402 55.2707 240.444 55.9171 241.293 56.7661L240.367 58.5895C239.402 57.7598 238.418 57.152 237.415 56.7661C236.431 56.3802 235.35 56.1873 234.173 56.1873C232.572 56.1873 231.317 56.5346 230.41 57.2292C229.504 57.9045 229.05 58.8403 229.05 60.0366C229.05 61.0786 229.446 61.86 230.237 62.381C231.028 62.902 232.243 63.3554 233.884 63.7413C235.659 64.1658 237.048 64.5613 238.051 64.928C239.074 65.2753 239.923 65.8155 240.598 66.5487C241.274 67.2627 241.611 68.2178 241.611 69.4141C241.611 70.5718 241.303 71.5944 240.685 72.482C240.068 73.3503 239.18 74.0256 238.022 74.508C236.884 74.9904 235.543 75.2315 233.999 75.2315ZM247.083 54.3928H249.456V72.974H259.789V75H247.083V54.3928ZM264.446 54.3928H266.819V75H264.446V54.3928ZM292.978 54.3928V75H290.779V59.6893L284.093 75H282.414L275.67 59.8051L275.699 75H273.5V54.3928H275.468L283.282 72.1636L291.01 54.3928H292.978Z" fill="white"/>
<path d="M185.836 73.9581L186.175 73.3959L186.175 73.3959L185.836 73.9581ZM182.565 70.3113L181.971 70.5905L181.975 70.5991L182.565 70.3113ZM182.565 59.0815L183.158 59.3635L183.158 59.3635L182.565 59.0815ZM185.807 55.4348L185.468 54.8726L185.468 54.8726L185.807 55.4348ZM195.821 55.4348L196.16 54.8726L196.16 54.8726L195.821 55.4348ZM199.063 59.0815L198.47 59.3635L198.47 59.3635L199.063 59.0815ZM199.034 70.2823L198.444 69.9946L198.441 70.0004L199.034 70.2823ZM195.792 73.9581L196.131 74.5203L196.137 74.5168L195.792 73.9581ZM195.908 70.977L196.416 71.3926L196.416 71.3926L195.908 70.977ZM195.908 58.3869L195.399 58.8018L195.403 58.8058L195.908 58.3869ZM185.691 58.4159L186.196 58.8348L186.199 58.8315L185.691 58.4159ZM185.691 70.977L186.199 70.5613L185.691 70.977ZM190.814 74.5751C189.004 74.5751 187.465 74.1739 186.175 73.3959L185.497 74.5202C187.023 75.4402 188.804 75.8879 190.814 75.8879V74.5751ZM186.175 73.3959C184.882 72.6169 183.876 71.5003 183.155 70.0235L181.975 70.5991C182.799 72.2866 183.972 73.6013 185.497 74.5202L186.175 73.3959ZM183.159 70.0321C182.456 68.5344 182.093 66.7616 182.093 64.6964H180.78C180.78 66.9147 181.17 68.8852 181.971 70.5904L183.159 70.0321ZM182.093 64.6964C182.093 62.6106 182.456 60.8395 183.158 59.3635L181.973 58.7996C181.17 60.488 180.78 62.4601 180.78 64.6964H182.093ZM183.158 59.3635C183.859 57.8896 184.855 56.775 186.146 55.9969L185.468 54.8726C183.942 55.7925 182.777 57.1091 181.973 58.7996L183.158 59.3635ZM186.146 55.9969C187.435 55.2196 188.983 54.8177 190.814 54.8177V53.5049C188.786 53.5049 186.995 53.952 185.468 54.8726L186.146 55.9969ZM190.814 54.8177C192.645 54.8177 194.192 55.2196 195.482 55.9969L196.16 54.8726C194.633 53.952 192.842 53.5049 190.814 53.5049V54.8177ZM195.482 55.9969C196.773 56.775 197.769 57.8896 198.47 59.3635L199.655 58.7996C198.851 57.1091 197.686 55.7925 196.16 54.8726L195.482 55.9969ZM198.47 59.3635C199.172 60.8402 199.535 62.602 199.535 64.6675H200.848C200.848 62.4495 200.458 60.4873 199.655 58.7996L198.47 59.3635ZM199.535 64.6675C199.535 66.7511 199.163 68.5201 198.444 69.9946L199.624 70.5701C200.448 68.8802 200.848 66.906 200.848 64.6675H199.535ZM198.441 70.0004C197.739 71.4754 196.742 72.6014 195.448 73.3993L196.137 74.5168C197.659 73.5781 198.823 72.2537 199.626 70.5643L198.441 70.0004ZM195.453 73.3959C194.163 74.1739 192.624 74.5751 190.814 74.5751V75.8879C192.824 75.8879 194.605 75.4402 196.131 74.5202L195.453 73.3959ZM190.814 73.8619C193.161 73.8619 195.058 73.0526 196.416 71.3926L195.4 70.5613C194.327 71.8728 192.828 72.5492 190.814 72.5492V73.8619ZM196.416 71.3926C197.76 69.7492 198.388 67.4775 198.388 64.6675H197.075C197.075 67.2986 196.486 69.2333 195.4 70.5613L196.416 71.3926ZM198.388 64.6675C198.388 61.8581 197.761 59.5937 196.413 57.968L195.403 58.8058C196.486 60.113 197.075 62.0356 197.075 64.6675H198.388ZM196.416 57.972C195.075 56.327 193.175 55.5309 190.814 55.5309V56.8437C192.852 56.8437 194.349 57.5139 195.399 58.8018L196.416 57.972ZM190.814 55.5309C188.45 55.5309 186.542 56.3388 185.183 58.0002L186.199 58.8315C187.271 57.5215 188.779 56.8437 190.814 56.8437V55.5309ZM185.186 57.997C183.839 59.6219 183.211 61.8761 183.211 64.6675H184.524C184.524 62.0562 185.112 60.1427 186.196 58.8348L185.186 57.997ZM183.211 64.6675C183.211 67.4775 183.838 69.7492 185.183 71.3926L186.199 70.5613C185.113 69.2333 184.524 67.2986 184.524 64.6675H183.211ZM185.183 71.3926C186.542 73.054 188.45 73.8619 190.814 73.8619V72.5492C188.779 72.5492 187.271 71.8714 186.199 70.5613L185.183 71.3926ZM223.283 54.3928L223.884 54.6556L224.286 53.7364H223.283V54.3928ZM214.282 75V75.6564H214.711L214.883 75.2627L214.282 75ZM212.198 75L211.596 75.2627L211.768 75.6564H212.198V75ZM203.197 54.3928V53.7364H202.194L202.595 54.6556L203.197 54.3928ZM205.715 54.3928L206.318 54.1339L206.147 53.7364H205.715V54.3928ZM213.269 71.99L212.666 72.2489L213.269 73.654L213.872 72.2489L213.269 71.99ZM220.823 54.3928V53.7364H220.39L220.22 54.1339L220.823 54.3928ZM222.681 54.1301L213.68 74.7373L214.883 75.2627L223.884 54.6556L222.681 54.1301ZM214.282 74.3436H212.198V75.6564H214.282V74.3436ZM212.799 74.7373L203.798 54.1301L202.595 54.6556L211.596 75.2627L212.799 74.7373ZM203.197 55.0492H205.715V53.7364H203.197V55.0492ZM205.112 54.6517L212.666 72.2489L213.872 71.731L206.318 54.1339L205.112 54.6517ZM213.872 72.2489L221.426 54.6517L220.22 54.1339L212.666 71.731L213.872 72.2489ZM220.823 55.0492H223.283V53.7364H220.823V55.0492ZM226.301 72.6267L225.712 72.3369L225.494 72.7801L225.859 73.1124L226.301 72.6267ZM227.198 70.8033L227.623 70.3029L226.981 69.7579L226.609 70.5135L227.198 70.8033ZM230.324 72.6556L230.109 73.2761L230.109 73.2761L230.324 72.6556ZM237.849 72.2504L238.231 72.7838L238.233 72.7823L237.849 72.2504ZM238.543 67.8222L238.069 68.2759L238.079 68.2865L238.09 68.2966L238.543 67.8222ZM236.836 66.7803L236.613 67.3977L236.618 67.3996L236.836 66.7803ZM234.028 65.9988L234.175 65.359L234.169 65.3577L234.028 65.9988ZM227.632 63.1335L227.126 63.5513L227.131 63.5575L227.632 63.1335ZM227.603 57.0266L228.142 57.4015L228.146 57.396L227.603 57.0266ZM230.208 54.9138L229.943 54.3131L229.939 54.3148L230.208 54.9138ZM238.167 54.827L238.389 54.2092L238.389 54.2092L238.167 54.827ZM241.293 56.7661L241.878 57.0634L242.094 56.6387L241.757 56.302L241.293 56.7661ZM240.367 58.5895L239.939 59.0872L240.573 59.6327L240.952 58.8868L240.367 58.5895ZM237.415 56.7661L237.175 57.3772L237.179 57.3788L237.415 56.7661ZM230.41 57.2292L230.803 57.7557L230.81 57.7503L230.41 57.2292ZM230.237 62.381L230.598 61.8328L230.598 61.8328L230.237 62.381ZM233.884 63.7413L234.036 63.1029L234.034 63.1024L233.884 63.7413ZM238.051 64.928L237.826 65.5445L237.833 65.5471L237.84 65.5495L238.051 64.928ZM240.598 66.5487L240.115 66.9935L240.121 66.9998L240.598 66.5487ZM240.685 72.482L241.22 72.8624L241.224 72.8568L240.685 72.482ZM238.022 74.508L237.77 73.9021L237.766 73.9036L238.022 74.508ZM233.999 74.5751C230.898 74.5751 228.504 73.7423 226.742 72.141L225.859 73.1124C227.918 74.9842 230.656 75.8879 233.999 75.8879V74.5751ZM226.89 72.9165L227.787 71.0931L226.609 70.5135L225.712 72.3369L226.89 72.9165ZM226.773 71.3037C227.846 72.2147 228.958 72.8782 230.109 73.2761L230.538 72.0352C229.567 71.6999 228.595 71.1285 227.623 70.3029L226.773 71.3037ZM230.109 73.2761C231.254 73.6717 232.565 73.8619 234.028 73.8619V72.5492C232.675 72.5492 231.515 72.3728 230.538 72.0352L230.109 73.2761ZM234.028 73.8619C235.758 73.8619 237.188 73.5323 238.231 72.7838L237.466 71.7171C236.734 72.242 235.617 72.5492 234.028 72.5492V73.8619ZM238.233 72.7823C239.321 71.9955 239.865 70.8757 239.865 69.5009H238.553C238.553 70.4801 238.19 71.1933 237.464 71.7186L238.233 72.7823ZM239.865 69.5009C239.865 68.6529 239.588 67.913 238.997 67.3479L238.09 68.2966C238.386 68.5805 238.553 68.9596 238.553 69.5009H239.865ZM239.018 67.3685C238.507 66.8348 237.842 66.4383 237.053 66.161L236.618 67.3996C237.257 67.624 237.731 67.9221 238.069 68.2759L239.018 67.3685ZM237.059 66.1629C236.329 65.8993 235.364 65.6319 234.175 65.3591L233.881 66.6386C235.047 66.906 235.954 67.1596 236.613 67.3977L237.059 66.1629ZM234.169 65.3577C232.607 65.0148 231.341 64.6475 230.363 64.2598L229.879 65.4803C230.946 65.903 232.285 66.2883 233.888 66.64L234.169 65.3577ZM230.363 64.2598C229.429 63.8897 228.692 63.3704 228.133 62.7095L227.131 63.5575C227.845 64.4017 228.768 65.04 229.879 65.4803L230.363 64.2598ZM228.138 62.7158C227.62 62.0872 227.333 61.2427 227.333 60.1235H226.02C226.02 61.474 226.371 62.6362 227.126 63.5512L228.138 62.7158ZM227.333 60.1235C227.333 59.068 227.608 58.1692 228.142 57.4014L227.064 56.6518C226.363 57.6592 226.02 58.8249 226.02 60.1235H227.333ZM228.146 57.396C228.687 56.6011 229.455 55.9708 230.476 55.5128L229.939 54.3148C228.723 54.8602 227.754 55.6384 227.06 56.6572L228.146 57.396ZM230.473 55.5144C231.512 55.0564 232.74 54.8177 234.173 54.8177V53.5049C232.596 53.5049 231.181 53.7678 229.943 54.3131L230.473 55.5144ZM234.173 54.8177C235.532 54.8177 236.787 55.0286 237.945 55.4447L238.389 54.2092C237.077 53.7377 235.67 53.5049 234.173 53.5049V54.8177ZM237.945 55.4447C239.098 55.8588 240.054 56.4558 240.829 57.2303L241.757 56.302C240.833 55.3784 239.706 54.6827 238.389 54.2092L237.945 55.4447ZM240.708 56.4689L239.782 58.2923L240.952 58.8868L241.878 57.0634L240.708 56.4689ZM240.795 58.0918C239.783 57.2219 238.735 56.5708 237.65 56.1535L237.179 57.3788C238.1 57.7332 239.021 58.2978 239.939 59.0872L240.795 58.0918ZM237.654 56.155C236.586 55.736 235.423 55.5309 234.173 55.5309V56.8437C235.277 56.8437 236.275 57.0245 237.175 57.3772L237.654 56.155ZM234.173 55.5309C232.484 55.5309 231.071 55.8966 230.011 56.7081L230.81 57.7503C231.564 57.1726 232.659 56.8437 234.173 56.8437V55.5309ZM230.018 56.7027C228.934 57.5101 228.394 58.647 228.394 60.0366H229.707C229.707 59.0337 230.073 58.299 230.803 57.7557L230.018 56.7027ZM228.394 60.0366C228.394 61.2733 228.88 62.2731 229.876 62.9292L230.598 61.8328C230.012 61.4469 229.707 60.8839 229.707 60.0366H228.394ZM229.876 62.9292C230.763 63.5134 232.067 63.9882 233.733 64.3802L234.034 63.1024C232.42 62.7226 231.293 62.2905 230.598 61.8328L229.876 62.9292ZM233.731 64.3797C235.496 64.8018 236.857 65.1905 237.826 65.5445L238.277 64.3114C237.239 63.9322 235.821 63.5298 234.036 63.1029L233.731 64.3797ZM237.84 65.5495C238.768 65.8645 239.521 66.3476 240.115 66.9934L241.081 66.1041C240.325 65.2835 239.38 64.686 238.262 64.3064L237.84 65.5495ZM240.121 66.9998C240.657 67.5665 240.955 68.347 240.955 69.4141H242.268C242.268 68.0885 241.89 66.9588 241.075 66.0977L240.121 66.9998ZM240.955 69.4141C240.955 70.4477 240.682 71.3375 240.146 72.1071L241.224 72.8568C241.923 71.8513 242.268 70.6958 242.268 69.4141H240.955ZM240.15 72.1016C239.616 72.8532 238.835 73.4585 237.77 73.9021L238.275 75.1139C239.526 74.5927 240.52 73.8474 241.22 72.8624L240.15 72.1016ZM237.766 73.9036C236.726 74.3443 235.476 74.5751 233.999 74.5751V75.8879C235.61 75.8879 237.042 75.6364 238.278 75.1123L237.766 73.9036ZM247.083 54.3928V53.7364H246.426V54.3928H247.083ZM249.456 54.3928H250.112V53.7364H249.456V54.3928ZM249.456 72.974H248.8V73.6304H249.456V72.974ZM259.789 72.974H260.445V72.3176H259.789V72.974ZM259.789 75V75.6564H260.445V75H259.789ZM247.083 75H246.426V75.6564H247.083V75ZM247.083 55.0492H249.456V53.7364H247.083V55.0492ZM248.8 54.3928V72.974H250.112V54.3928H248.8ZM249.456 73.6304H259.789V72.3176H249.456V73.6304ZM259.132 72.974V75H260.445V72.974H259.132ZM259.789 74.3436H247.083V75.6564H259.789V74.3436ZM247.739 75V54.3928H246.426V75H247.739ZM264.446 54.3928V53.7364H263.79V54.3928H264.446ZM266.819 54.3928H267.476V53.7364H266.819V54.3928ZM266.819 75V75.6564H267.476V75H266.819ZM264.446 75H263.79V75.6564H264.446V75ZM264.446 55.0492H266.819V53.7364H264.446V55.0492ZM266.163 54.3928V75H267.476V54.3928H266.163ZM266.819 74.3436H264.446V75.6564H266.819V74.3436ZM265.103 75V54.3928H263.79V75H265.103ZM292.978 54.3928H293.635V53.7364H292.978V54.3928ZM292.978 75V75.6564H293.635V75H292.978ZM290.779 75H290.122V75.6564H290.779V75ZM290.779 59.6893H291.435L290.177 59.4267L290.779 59.6893ZM284.093 75V75.6564H284.522L284.694 75.2627L284.093 75ZM282.414 75L281.814 75.2663L281.987 75.6564H282.414V75ZM275.67 59.8051L276.27 59.5388L275.014 59.8064L275.67 59.8051ZM275.699 75V75.6564H276.357L276.356 74.9987L275.699 75ZM273.5 75H272.843V75.6564H273.5V75ZM273.5 54.3928V53.7364H272.843V54.3928H273.5ZM275.468 54.3928L276.069 54.1286L275.896 53.7364H275.468V54.3928ZM283.282 72.1636L282.682 72.4278L283.286 73.8019L283.884 72.4254L283.282 72.1636ZM291.01 54.3928V53.7364H290.58L290.408 54.1311L291.01 54.3928ZM292.322 54.3928V75H293.635V54.3928H292.322ZM292.978 74.3436H290.779V75.6564H292.978V74.3436ZM291.435 75V59.6893H290.122V75H291.435ZM290.177 59.4267L283.491 74.7373L284.694 75.2627L291.38 59.952L290.177 59.4267ZM284.093 74.3436H282.414V75.6564H284.093V74.3436ZM283.014 74.7337L276.27 59.5388L275.07 60.0714L281.814 75.2663L283.014 74.7337ZM275.014 59.8064L275.043 75.0013L276.356 74.9987L276.327 59.8038L275.014 59.8064ZM275.699 74.3436H273.5V75.6564H275.699V74.3436ZM274.156 75V54.3928H272.843V75H274.156ZM273.5 55.0492H275.468V53.7364H273.5V55.0492ZM274.867 54.657L282.682 72.4278L283.883 71.8994L276.069 54.1286L274.867 54.657ZM283.884 72.4254L291.612 54.6546L290.408 54.1311L282.68 71.9019L283.884 72.4254ZM291.01 55.0492H292.978V53.7364H291.01V55.0492Z" fill="white"/>
</g>
<defs>
<clipPath id="clip0">
<rect width="1030" height="590" fill="white"/>
</clipPath>
</defs>
</svg>
