<svg width="238" height="132" viewBox="0 0 238 132" fill="none" xmlns="http://www.w3.org/2000/svg">
<path d="M16.1123 131.707H27.2897V129.48H20.7173L24.1549 126.129C25.9925 124.356 27.1816 122.605 27.1816 120.594C27.1816 117.87 25.2791 116.033 22.0794 116.033C18.8148 116.033 16.7825 117.978 16.5879 121.351H19.2256C19.485 119.168 20.4579 118.281 21.9929 118.281C23.4846 118.281 24.3062 119.189 24.3062 120.638C24.3062 122.108 23.4198 123.47 21.9496 125.027L16.1123 131.188V131.707Z" fill="white"/>
<path d="M35.7699 131.923C39.8128 131.923 42.2342 128.961 42.2342 124.313V123.535C42.2342 118.887 39.6831 116.033 35.7699 116.033C31.8784 116.033 29.284 118.908 29.284 123.6V124.378C29.284 129.026 31.8351 131.923 35.7699 131.923ZM35.8348 129.632C33.5215 129.632 32.181 127.859 32.181 124.356V123.578C32.181 120.14 33.4566 118.281 35.7915 118.281C38.1049 118.281 39.3588 120.27 39.3588 123.556V124.313C39.3588 127.815 38.213 129.632 35.8348 129.632Z" fill="white"/>
<path d="M43.6649 131.707H54.8423V129.48H48.2699L51.7074 126.129C53.5451 124.356 54.7342 122.605 54.7342 120.594C54.7342 117.87 52.8316 116.033 49.6319 116.033C46.3673 116.033 44.3351 117.978 44.1405 121.351H46.7781C47.0375 119.168 48.0104 118.281 49.5454 118.281C51.0372 118.281 51.8587 119.189 51.8587 120.638C51.8587 122.108 50.9723 123.47 49.5022 125.027L43.6649 131.188V131.707Z" fill="white"/>
<path d="M56.2693 131.707H67.4468V129.48H60.8744L64.3119 126.129C66.1496 124.356 67.3387 122.605 67.3387 120.594C67.3387 117.87 65.4361 116.033 62.2364 116.033C58.9718 116.033 56.9396 117.978 56.745 121.351H59.3826C59.642 119.168 60.6149 118.281 62.1499 118.281C63.6417 118.281 64.4632 119.189 64.4632 120.638C64.4632 122.108 63.5768 123.47 62.1067 125.027L56.2693 131.188V131.707Z" fill="white"/>
<path fill-rule="evenodd" clip-rule="evenodd" d="M13.2124 80.7869C5.91537 80.7869 0 86.7023 0 93.9993C0 101.296 5.91539 107.212 13.2124 107.212H140.407C147.704 107.212 153.619 101.296 153.619 93.9993C153.619 86.7023 147.703 80.7869 140.407 80.7869H13.2124ZM16.2812 101.656H20.1728V91.9486L25.8156 101.656H30.0963V86.1977H26.2263V94.9105L21.2754 86.1977H16.2812V101.656ZM38.1704 101.915C41.5864 101.915 43.5538 100.467 43.8997 97.9157H40.2675C40.1162 98.6724 39.5757 99.2561 38.3001 99.2561C36.9165 99.2561 36.0517 98.3913 35.9436 96.8995H43.8997V95.8834C43.8997 91.8189 41.2404 90.0461 38.1488 90.0461C34.7329 90.0461 32.0304 92.3378 32.0304 95.9699V96.1428C32.0304 99.8398 34.6248 101.915 38.1704 101.915ZM35.9868 94.7159C36.1814 93.3539 36.9813 92.5972 38.1488 92.5972C39.4028 92.5972 40.073 93.3539 40.1378 94.7159H35.9868ZM51.4668 101.656H47.7049L44.289 90.3487H48.3319L49.975 97.1157L51.8775 90.3487H54.9908L56.6771 97.1157L58.5148 90.3487H62.1902L58.6013 101.656H54.9043L53.218 95.3429L51.4668 101.656ZM93.9385 101.656H98.3922V96.1861H103.17V92.9215H98.3922V89.6353H104.381V86.1977H93.9385V101.656ZM111.098 101.915C114.514 101.915 116.482 100.467 116.828 97.9157H113.195C113.044 98.6724 112.504 99.2561 111.228 99.2561C109.844 99.2561 108.98 98.3913 108.871 96.8995H116.828V95.8834C116.828 91.8189 114.168 90.0461 111.077 90.0461C107.661 90.0461 104.958 92.3378 104.958 95.9699V96.1428C104.958 99.8398 107.553 101.915 111.098 101.915ZM108.915 94.7159C109.109 93.3539 109.909 92.5972 111.077 92.5972C112.331 92.5972 113.001 93.3539 113.066 94.7159H108.915ZM128.146 98.0238C128.146 100.705 126.157 101.915 123.022 101.915C119.801 101.915 117.92 100.575 117.834 98.067H121.401C121.531 98.8886 121.898 99.3426 123.001 99.3426C123.952 99.3426 124.385 98.975 124.385 98.4129C124.385 97.8724 123.844 97.613 122.287 97.3968C119.261 97.0076 117.985 96.1212 117.985 93.7647C117.985 91.2568 120.212 90.0461 122.828 90.0461C125.617 90.0461 127.563 90.9973 127.822 93.6998H124.32C124.168 92.9431 123.758 92.5756 122.871 92.5756C122.028 92.5756 121.596 92.9431 121.596 93.462C121.596 94.0025 122.114 94.2187 123.498 94.3916C126.633 94.7808 128.146 95.6024 128.146 98.0238ZM134.214 101.915C135.111 101.915 135.84 101.725 136.337 101.596L136.354 101.591V98.6507C136.008 98.7805 135.684 98.8453 135.252 98.8453C134.517 98.8453 134.106 98.4778 134.106 97.6562V92.9864H136.333V90.3487H134.106V87.9922H130.236V90.3487H128.874V92.9864H130.236V98.0238C130.236 100.683 131.663 101.915 134.214 101.915ZM72.9646 101.656H68.4893V86.1977H72.9646V101.656ZM83.4191 101.656H78.9654V89.6137H74.9657V86.1977H87.4187V89.6137H83.4191V101.656Z" fill="white"/>
<path d="M166.668 35.7282L165.435 23.6514C165.435 22.421 164.821 21.498 168.813 17.0362C173.277 12.046 179.561 5.80593 182.018 3.19065C183.553 1.55559 187.299 0.975353 187.545 5.65209C187.791 10.3288 189.592 30.7795 190.462 40.4203C190.768 43.8048 191.691 47.0354 189.235 46.5739C186.79 46.1147 168.762 43.292 158.065 42.1126C154.994 41.774 150.848 41.0357 147.778 44.7278C144.707 48.42 139.026 54.6762 136.569 57.3427C134.982 59.2914 133.816 62.6345 136.569 63.4963C139.026 64.2655 157.4 65.6501 165.435 66.5731C166.817 66.6757 170.287 66.2039 173.112 63.4963C175.937 60.7887 181.967 54.7787 184.628 52.1122" stroke="white" stroke-width="3.5881"/>
<path d="M203.984 80.2207L204.744 90.8426C204.734 92.0725 205.341 93.0002 201.307 97.4278C196.795 102.38 190.451 108.566 187.97 111.161C186.418 112.783 182.661 113.332 182.453 108.655C182.245 103.978 181.042 85.6034 180.249 75.9592C179.971 72.5735 179.072 69.3366 181.529 69.8179C183.974 70.2969 202.007 73.2652 212.711 74.5312C215.784 74.8947 219.93 75.6664 223.036 72.0007C226.141 68.3349 231.882 62.1273 234.364 59.4817C235.969 57.5467 237.164 54.2144 234.414 53.3305C231.959 52.5416 213.568 51.008 205.528 50.02C204.145 49.9062 200.666 50.3495 197.814 53.0331C194.962 55.7167 189.269 61.2509 186.581 63.8948" stroke="white" stroke-width="3.5881"/>
</svg>
