<svg width="315" height="176" viewBox="0 0 315 176" fill="none" xmlns="http://www.w3.org/2000/svg">
<path d="M21.3086 174.863H36.091V171.918H27.3988L31.945 167.486C34.3754 165.141 35.948 162.825 35.948 160.166C35.948 156.563 33.4319 154.133 29.2001 154.133C24.8827 154.133 22.195 156.706 21.9376 161.167H25.4259C25.769 158.279 27.0557 157.107 29.0858 157.107C31.0587 157.107 32.1452 158.308 32.1452 160.223C32.1452 162.168 30.9729 163.969 29.0286 166.028L21.3086 174.176V174.863Z" fill="white"/>
<path d="M47.3062 175.149C52.653 175.149 55.8554 171.231 55.8554 165.084V164.055C55.8554 157.907 52.4814 154.133 47.3062 154.133C42.1595 154.133 38.7284 157.936 38.7284 164.14V165.17C38.7284 171.317 42.1023 175.149 47.3062 175.149ZM47.392 172.118C44.3325 172.118 42.5598 169.773 42.5598 165.141V164.112C42.5598 159.566 44.2468 157.107 47.3348 157.107C50.3942 157.107 52.0525 159.737 52.0525 164.083V165.084C52.0525 169.716 50.5371 172.118 47.392 172.118Z" fill="white"/>
<path d="M57.7474 174.863H72.5298V171.918H63.8376L68.3838 167.486C70.8142 165.141 72.3868 162.825 72.3868 160.166C72.3868 156.563 69.8706 154.133 65.6389 154.133C61.3215 154.133 58.6338 156.706 58.3764 161.167H61.8647C62.2078 158.279 63.4945 157.107 65.5246 157.107C67.4975 157.107 68.584 158.308 68.584 160.223C68.584 162.168 67.4117 163.969 65.4674 166.028L57.7474 174.176V174.863Z" fill="white"/>
<path d="M79.081 174.863H82.9124V154.419H79.5099L74.7636 157.793V161.138L79.081 158.193V174.863Z" fill="white"/>
<path fill-rule="evenodd" clip-rule="evenodd" d="M17.4736 106.197C7.8232 106.197 0 114.02 0 123.671C0 133.321 7.8232 141.144 17.4736 141.144H185.69C195.341 141.144 203.164 133.321 203.164 123.671C203.164 114.02 195.341 106.197 185.69 106.197H17.4736ZM21.5322 133.797H26.6789V120.959L34.1415 133.797H39.8029V113.353H34.6848V124.876L28.1371 113.353H21.5322V133.797ZM50.4811 134.14C54.9987 134.14 57.6006 132.224 58.0581 128.85H53.2545C53.0544 129.851 52.3396 130.623 50.6526 130.623C48.8227 130.623 47.679 129.479 47.536 127.506H58.0581V126.163C58.0581 120.787 54.5412 118.443 50.4525 118.443C45.9348 118.443 42.3608 121.473 42.3608 126.277V126.506C42.3608 131.395 45.7919 134.14 50.4811 134.14ZM47.5932 124.619C47.8505 122.817 48.9085 121.817 50.4525 121.817C52.1108 121.817 52.9972 122.817 53.083 124.619H47.5932ZM68.0657 133.797H63.0906L58.573 118.843H63.9198L66.0928 127.792L68.609 118.843H72.7263L74.9565 127.792L77.3869 118.843H82.2477L77.5013 133.797H72.612L70.3817 125.448L68.0657 133.797ZM130.125 133.797H124.235V113.353H138.045V117.899H130.125V122.245H136.444V126.563H130.125V133.797ZM154.506 128.85C154.049 132.224 151.447 134.14 146.929 134.14C142.24 134.14 138.809 131.395 138.809 126.506V126.277C138.809 121.473 142.383 118.443 146.901 118.443C150.99 118.443 154.506 120.787 154.506 126.163V127.506H143.984C144.127 129.479 145.271 130.623 147.101 130.623C148.788 130.623 149.503 129.851 149.703 128.85H154.506ZM146.901 121.817C145.357 121.817 144.299 122.817 144.042 124.619H149.531C149.446 122.817 148.559 121.817 146.901 121.817ZM162.699 134.14C166.845 134.14 169.476 132.539 169.476 128.993C169.476 125.791 167.474 124.704 163.328 124.19C161.498 123.961 160.812 123.675 160.812 122.96C160.812 122.274 161.384 121.788 162.499 121.788C163.672 121.788 164.215 122.274 164.415 123.275H169.047C168.704 119.701 166.13 118.443 162.442 118.443C158.982 118.443 156.037 120.044 156.037 123.361C156.037 126.477 157.724 127.649 161.727 128.164C163.786 128.45 164.501 128.793 164.501 129.508C164.501 130.251 163.929 130.737 162.671 130.737C161.213 130.737 160.726 130.137 160.555 129.05H155.837C155.952 132.367 158.439 134.14 162.699 134.14ZM180.308 133.717C179.651 133.889 178.687 134.14 177.5 134.14C174.126 134.14 172.239 132.51 172.239 128.993V122.331H170.438V118.843H172.239V115.726H177.357V118.843H180.302V122.331H177.357V128.507C177.357 129.594 177.901 130.08 178.873 130.08C179.445 130.08 179.873 129.994 180.331 129.822V133.711L180.308 133.717ZM90.5782 133.797H96.4968V113.353H90.5782V133.797ZM104.433 133.797H110.323V117.871H115.613V113.353H99.1434V117.871H104.433V133.797Z" fill="white"/>
<path fill-rule="evenodd" clip-rule="evenodd" d="M244.66 3.83023C243.854 3.66685 242.709 4.07899 242.029 4.80296C240.928 5.97463 239.301 7.64289 237.401 9.58931C233.538 13.5487 228.552 18.659 224.595 23.0819C221.991 25.9923 221.065 27.565 220.729 28.4803C220.513 29.0702 220.527 29.3157 220.556 29.8033C220.568 29.9977 220.582 30.2307 220.584 30.5394L222.206 46.424C222.306 47.4097 221.589 48.2903 220.603 48.3909C219.617 48.4916 218.737 47.7741 218.636 46.7884L216.996 30.7257V30.6343C216.996 30.555 216.989 30.4506 216.98 30.3237C216.939 29.7192 216.862 28.6035 217.36 27.245C217.938 25.668 219.246 23.6799 221.921 20.6895C225.92 16.2197 231.074 10.9355 234.967 6.94507C236.824 5.04149 238.394 3.43229 239.414 2.34632C240.765 0.907902 243.112 -0.144846 245.373 0.313753C246.568 0.556224 247.685 1.21892 248.501 2.37003C249.296 3.49106 249.73 4.9634 249.823 6.73583C250.146 12.8775 252.524 39.8768 253.677 52.6504C253.746 53.4199 253.839 54.1678 253.932 54.9175C253.97 55.2265 254.008 55.5357 254.045 55.847C254.165 56.8645 254.271 57.9208 254.241 58.8463C254.213 59.7008 254.067 60.8663 253.298 61.7457C252.386 62.7899 251.092 62.9305 249.935 62.7131C246.748 62.1144 222.95 58.388 208.847 56.8329C208.636 56.8096 208.424 56.7857 208.213 56.7618C204.116 56.299 199.996 55.8335 196.818 59.6556C192.74 64.5581 185.242 72.816 181.973 76.3652C181.075 77.4819 180.38 78.9024 180.243 80.0187C180.176 80.5628 180.257 80.8953 180.359 81.0827C180.439 81.2296 180.616 81.4507 181.151 81.618C181.407 81.6982 182.012 81.8215 183.019 81.9728C183.986 82.1182 185.22 82.2752 186.661 82.4411C189.543 82.7726 193.201 83.1336 197.105 83.5023C199.185 83.6988 201.337 83.8975 203.474 84.095C209.312 84.6343 215.046 85.1641 218.956 85.6124C220.405 85.7076 224.425 85.1758 227.702 82.0348C231.422 78.4703 239.381 70.5365 242.904 67.007C243.604 66.3057 244.74 66.3046 245.441 67.0045C246.143 67.7044 246.144 68.8404 245.444 69.5417C241.927 73.0653 233.938 81.0282 230.185 84.6253C226.015 88.6222 220.892 89.3542 218.658 89.1884L218.622 89.1857L218.586 89.1815C214.718 88.7373 209.03 88.2118 203.189 87.6721C201.042 87.4737 198.874 87.2734 196.767 87.0745C192.861 86.7056 189.172 86.3417 186.251 86.0057C184.792 85.8378 183.511 85.6753 182.485 85.521C181.499 85.3728 180.635 85.2163 180.079 85.0422C178.792 84.6396 177.797 83.8806 177.208 82.7974C176.64 81.7546 176.556 80.6071 176.682 79.5812C176.929 77.5712 178.039 75.5135 179.223 74.0591L179.258 74.0166L179.295 73.9762C182.545 70.4486 190.03 62.2051 194.059 57.3612C198.521 51.9967 204.553 52.7125 208.443 53.174C208.72 53.2068 208.986 53.2384 209.24 53.2664C223.43 54.831 247.318 58.5706 250.597 59.1867C250.603 59.1878 250.609 59.189 250.615 59.19C250.632 59.0826 250.648 58.933 250.655 58.73C250.675 58.1042 250.603 57.2912 250.482 56.2678C250.45 55.9983 250.415 55.714 250.378 55.4192C250.283 54.648 250.178 53.8058 250.103 52.9729C248.954 40.2462 246.567 13.1525 246.24 6.92406C246.171 5.60395 245.863 4.85281 245.575 4.44574C245.307 4.06877 244.997 3.89875 244.66 3.83023Z" fill="white"/>
<path fill-rule="evenodd" clip-rule="evenodd" d="M244.651 146.079C245.459 146.249 246.611 145.845 247.298 145.127C248.41 143.965 250.054 142.31 251.972 140.38C255.873 136.454 260.909 131.386 264.908 126.997C267.539 124.109 268.48 122.544 268.823 121.632C269.045 121.045 269.032 120.8 269.007 120.313C268.997 120.114 268.984 119.875 268.985 119.556L267.984 105.577C267.913 104.588 268.657 103.73 269.645 103.659C270.634 103.588 271.492 104.332 271.563 105.32L272.574 119.439L272.573 119.511C272.573 119.59 272.579 119.694 272.587 119.821C272.623 120.425 272.691 121.542 272.181 122.897C271.589 124.469 270.264 126.446 267.56 129.413C263.519 133.849 258.313 139.089 254.382 143.046C252.507 144.934 250.921 146.53 249.891 147.607C248.526 149.034 246.168 150.066 243.91 149.59C242.717 149.338 241.604 148.667 240.796 147.51C240.008 146.382 239.586 144.907 239.507 143.133C239.233 136.978 237.644 112.701 236.596 99.9596C236.533 99.1898 236.446 98.4416 236.359 97.6915C236.323 97.3823 236.287 97.0728 236.253 96.7614C236.141 95.7432 236.044 94.6862 236.081 93.7609C236.116 92.9065 236.273 91.7419 237.049 90.8688C237.971 89.8331 239.266 89.7036 240.422 89.93C243.608 90.5544 267.413 94.4732 281.526 96.1424C281.737 96.1674 281.949 96.193 282.16 96.2186C286.26 96.7146 290.385 97.2138 293.601 93.4176C297.725 88.5502 305.302 80.3564 308.604 76.8351C309.513 75.7261 310.22 74.3122 310.366 73.1983C310.438 72.6556 310.359 72.3233 310.259 72.1358C310.18 71.9887 310.004 71.7656 309.469 71.5936C309.213 71.5111 308.607 71.383 307.6 71.2235C306.633 71.0703 305.398 70.9033 303.956 70.7257C301.072 70.3708 297.411 69.9802 293.504 69.58C291.422 69.3666 289.269 69.1505 287.131 68.9357C281.288 68.349 275.549 67.7728 271.636 67.2928C270.185 67.1857 266.152 67.685 262.843 70.7988C259.087 74.3342 251.568 81.6423 248.017 85.136C247.311 85.8309 246.175 85.8217 245.48 85.1154C244.785 84.4091 244.794 83.2732 245.5 82.5783C249.057 79.0788 256.599 71.7487 260.384 68.1858C264.593 64.225 269.728 63.5355 271.963 63.7193L271.999 63.7223L272.035 63.7267C275.905 64.2023 281.597 64.7739 287.443 65.3609C289.592 65.5767 291.762 65.7946 293.87 66.0105C297.779 66.4111 301.472 66.8048 304.394 67.1645C305.854 67.3442 307.135 67.517 308.161 67.6795C309.148 67.8358 310.012 67.9992 310.567 68.1776C311.851 68.5901 312.841 69.3563 313.423 70.4442C313.983 71.4918 314.059 72.6404 313.924 73.6655C313.66 75.6737 312.531 77.722 311.333 79.1661L311.298 79.2083L311.26 79.2483C307.977 82.7482 300.413 90.9277 296.339 95.737C291.828 101.062 285.794 100.298 281.902 99.8046C281.625 99.7695 281.359 99.7357 281.105 99.7057C266.905 98.0262 243.011 94.0937 239.732 93.4512C239.724 93.4497 239.717 93.4483 239.71 93.4469C239.692 93.554 239.675 93.7035 239.666 93.9066C239.641 94.5317 239.707 95.3447 239.82 96.3686C239.849 96.6382 239.882 96.9227 239.916 97.2175C240.006 97.9893 240.104 98.8322 240.172 99.6655C241.222 112.434 242.815 136.759 243.092 142.974C243.15 144.293 243.452 145.046 243.737 145.455C244.002 145.834 244.312 146.007 244.651 146.079Z" fill="white"/>
</svg>
